<svg xmlns="http://www.w3.org/2000/svg" xmlns:xlink="http://www.w3.org/1999/xlink" viewBox="0 0 124.61 124.61"><defs><style>.cls-1{isolation:isolate;}.cls-2{fill:url(#linear-gradient);}.cls-10,.cls-11,.cls-12,.cls-13,.cls-14,.cls-15,.cls-16,.cls-17,.cls-3,.cls-4,.cls-5,.cls-6,.cls-7,.cls-8,.cls-9{mix-blend-mode:multiply;}.cls-3,.cls-4,.cls-5{opacity:0.4;}.cls-3{fill:url(#linear-gradient-2);}.cls-4{fill:url(#linear-gradient-3);}.cls-5{fill:url(#linear-gradient-4);}.cls-10,.cls-6,.cls-7,.cls-8{opacity:0.5;}.cls-6{fill:url(#linear-gradient-5);}.cls-7{fill:url(#linear-gradient-6);}.cls-8{fill:url(#linear-gradient-7);}.cls-11,.cls-9{opacity:0.6;}.cls-9{fill:url(#linear-gradient-8);}.cls-10{fill:url(#linear-gradient-9);}.cls-11{fill:url(#linear-gradient-10);}.cls-12,.cls-13,.cls-14,.cls-15,.cls-16,.cls-17{opacity:0.3;}.cls-12{fill:url(#linear-gradient-11);}.cls-13{fill:url(#linear-gradient-12);}.cls-14{fill:url(#linear-gradient-13);}.cls-15{fill:url(#linear-gradient-14);}.cls-16{fill:url(#linear-gradient-15);}.cls-17{fill:url(#linear-gradient-16);}</style><linearGradient id="linear-gradient" x1="19.79" y1="104.83" x2="99.24" y2="25.38" gradientUnits="userSpaceOnUse"><stop offset="0" stop-color="#e6007a"/><stop offset="0.21" stop-color="#703ac2"/><stop offset="0.46" stop-color="#0070eb"/><stop offset="0.77" stop-color="#0297fb"/><stop offset="1" stop-color="#0ae2ff"/></linearGradient><linearGradient id="linear-gradient-2" x1="59.04" y1="9.05" x2="38.74" y2="14.95" gradientUnits="userSpaceOnUse"><stop offset="0" stop-color="#231f20"/><stop offset="1" stop-color="#fff"/></linearGradient><linearGradient id="linear-gradient-3" x1="20.68" y1="86.46" x2="37.66" y2="104.18" xlink:href="#linear-gradient-2"/><linearGradient id="linear-gradient-4" x1="111.8" y1="83.79" x2="117.7" y2="65.83" xlink:href="#linear-gradient-2"/><linearGradient id="linear-gradient-5" x1="68.29" y1="19.32" x2="95.51" y2="25.55" xlink:href="#linear-gradient-2"/><linearGradient id="linear-gradient-6" x1="-2016.3" y1="-588.33" x2="-1989.08" y2="-582.1" gradientTransform="translate(-1421.12 1540.98) rotate(120)" xlink:href="#linear-gradient-2"/><linearGradient id="linear-gradient-7" x1="-1500.25" y1="1520.8" x2="-1473.03" y2="1527.03" gradientTransform="translate(-2045.08 -460.22) rotate(-120)" xlink:href="#linear-gradient-2"/><linearGradient id="linear-gradient-8" x1="74.24" y1="29.36" x2="65.63" y2="37.97" xlink:href="#linear-gradient-2"/><linearGradient id="linear-gradient-9" x1="-1479.29" y1="1522.18" x2="-1487.91" y2="1530.79" gradientTransform="translate(-2030.09 -451.57) rotate(-120)" xlink:href="#linear-gradient-2"/><linearGradient id="linear-gradient-10" x1="-1995.35" y1="-569.63" x2="-2003.96" y2="-561.02" gradientTransform="translate(-1406.12 1532.32) rotate(120)" xlink:href="#linear-gradient-2"/><linearGradient id="linear-gradient-11" x1="66.97" y1="78.65" x2="72.13" y2="71.52" xlink:href="#linear-gradient-2"/><linearGradient id="linear-gradient-12" x1="49.18" y1="75.56" x2="38.84" y2="80.48" xlink:href="#linear-gradient-2"/><linearGradient id="linear-gradient-13" x1="45.43" y1="58.36" x2="48.63" y2="65.01" xlink:href="#linear-gradient-2"/><linearGradient id="linear-gradient-14" x1="60.31" y1="37.85" x2="58.09" y2="30.22" xlink:href="#linear-gradient-2"/><linearGradient id="linear-gradient-15" x1="84.17" y1="72.77" x2="90.57" y2="74.24" xlink:href="#linear-gradient-2"/><linearGradient id="linear-gradient-16" x1="74.13" y1="51.16" x2="66.01" y2="49.68" xlink:href="#linear-gradient-2"/></defs><g class="cls-1"><g id="Layer_2" data-name="Layer 2"><g id="Layer_1-2" data-name="Layer 1"><path class="cls-2" d="M124.47,58.08a62.31,62.31,0,0,0-109-36.87h0l0,0c-.07.1-.13.2-.2.29A62.09,62.09,0,0,0,.15,66.54c.11,1.62.3,3.23.53,4.82h0l0,.21c.16,1.05.34,2.09.55,3.12h0v.06c.19.93.4,1.86.63,2.77h0A62.3,62.3,0,0,0,124.47,58.08ZM110.91,59a48.64,48.64,0,0,1-.74,12.35.14.14,0,0,0,0-.07h0c-4.52-11-13.45-19-21.31-23.42C90.43,29.15,84.08,21.27,76.9,20l-.59-.1a10.41,10.41,0,1,0-2.65,20.65,10.55,10.55,0,0,0,1.48.07c0,.64,0,1.31,0,2a55.62,55.62,0,0,0-18.51-1.46,54.92,54.92,0,0,0-6.34.8c.71-6.32,3.08-13.41,7.68-18.6A21.34,21.34,0,0,1,76.28,16.2a19.66,19.66,0,0,1,4.14.92l.19.06h0A48.77,48.77,0,0,1,110.91,59ZM67.48,68.52l0,0a43.5,43.5,0,0,1-5.33,6.3,46.24,46.24,0,0,1-7.5-10.56l-.3-.59v0a44.34,44.34,0,0,1-2.79-7.77,46.22,46.22,0,0,1,12.91-1.22c.22,0,.44,0,.66,0h0a44.25,44.25,0,0,1,8.12,1.47A46.77,46.77,0,0,1,67.84,68ZM46.19,16.35l0,0h0c-7.3,9.43-9.74,21.15-9.62,30.15-17,8-20.65,17.42-18.17,24.28.06.19.14.37.21.56a10.41,10.41,0,0,0,19.21-8A10.92,10.92,0,0,0,37.1,62c.54-.35,1.12-.7,1.73-1.06a55.89,55.89,0,0,0,8,16.79,55.23,55.23,0,0,0,3.86,5.08c-5.83,2.55-13.16,4-19.95,2.65A21.32,21.32,0,0,1,15.38,73.25a19.39,19.39,0,0,1-1.28-4c-.17-1.19-.31-2.38-.39-3.6A48.78,48.78,0,0,1,46.19,16.35Zm19.42,94.56a48.52,48.52,0,0,1-35-11.66c11.81,1.61,23.18-2.14,30.92-6.74,15.41,10.74,25.41,9.19,30.12,3.6l.38-.46A10.41,10.41,0,0,0,75.47,83a9.79,9.79,0,0,0-.8,1.25c-.57-.29-1.16-.61-1.78-1A55.52,55.52,0,0,0,83.42,68a52.86,52.86,0,0,0,2.48-5.9C91,65.89,96,71.49,98.18,78.07a21.33,21.33,0,0,1-2.93,19.4,19.72,19.72,0,0,1-2.87,3.12s0,0,0,0A48.43,48.43,0,0,1,65.61,110.91Z"/><path class="cls-3" d="M58.08.15a62.1,62.1,0,0,0-42.6,21.06l-.23.27h0c2,2,8.7,6,11.41,7.68A48.58,48.58,0,0,1,46.19,16.35c.53-.68,1.07-1.35,1.65-2C54.88,6.4,64.49,2.2,75.64,2.2c1.24,0,3.77.2,3.82.21A61.7,61.7,0,0,0,58.08.15Z"/><path class="cls-4" d="M65.61,110.91a48.52,48.52,0,0,1-35-11.66h0c-.88-.12-1.75-.26-2.62-.44-10.4-2.12-18.84-8.35-24.42-18C3,79.73,2.4,78.64,1.9,77.53a62.31,62.31,0,0,0,64.64,46.94C66.67,121.32,65.74,114,65.61,110.91Z"/><path class="cls-5" d="M124.47,58.08a111.27,111.27,0,0,0-13.56.92,48.64,48.64,0,0,1-.74,12.35c.33.79.63,1.59.91,2.42,3.36,10.06,2.19,20.49-3.39,30.14-.61,1-1.26,2.06-2,3l0,0a.14.14,0,0,0,0,0A62.13,62.13,0,0,0,124.47,58.08Z"/><path class="cls-6" d="M76.28,16.2a19.66,19.66,0,0,1,4.14.92l.19.06h0a48.86,48.86,0,0,1,14.53,9.19l0,0a35.52,35.52,0,0,1,6-4.91A32.71,32.71,0,0,0,85.9,13.4c-6.45-1.34-21-2.63-30.19,13l.09-.08A25.56,25.56,0,0,1,58,23.36,21.34,21.34,0,0,1,76.28,16.2Z"/><path class="cls-7" d="M95.25,97.46a19.79,19.79,0,0,1-2.87,3.13l-.14.13h0a49,49,0,0,1-15.23,8h0a36,36,0,0,1,1.26,7.64,32.66,32.66,0,0,0,14.62-9.17c4.39-4.92,12.79-16.88,3.85-32.64l0,.12a26.52,26.52,0,0,1,1.44,3.39A21.36,21.36,0,0,1,95.25,97.46Z"/><path class="cls-8" d="M15.4,73.27a20.2,20.2,0,0,1-1.28-4c0-.07,0-.13,0-.19h0a49.07,49.07,0,0,1,.69-17.18v0A35.68,35.68,0,0,1,7.54,49.1a32.6,32.6,0,0,0,.62,17.24C10.23,72.6,16.39,85.86,34.51,86l-.12,0a26.51,26.51,0,0,1-3.66-.45A21.34,21.34,0,0,1,15.4,73.27Z"/><path class="cls-9" d="M73.66,40.54a10.55,10.55,0,0,0,1.48.07A74.23,74.23,0,0,0,74,30.82c-.8-3.32-2-5.52-3.26-6.77-.92-.89-3.83-2-6.1,4.84A10.41,10.41,0,0,0,73.66,40.54Z"/><path class="cls-10" d="M37.78,63.36A9.65,9.65,0,0,0,37.1,62a73.61,73.61,0,0,0-7.92,5.87c-2.48,2.35-3.8,4.46-4.23,6.2-.31,1.25.18,4.32,7.24,2.86A10.39,10.39,0,0,0,37.78,63.36Z"/><path class="cls-11" d="M75.48,83a8.71,8.71,0,0,0-.8,1.24,72.38,72.38,0,0,0,9,3.93c3.27,1,5.76,1,7.49.56,1.23-.35,3.65-2.32-1.15-7.7A10.4,10.4,0,0,0,75.48,83Z"/><path class="cls-12" d="M73.24,56.18A46.77,46.77,0,0,1,67.84,68l-.36.55,0,0a43.5,43.5,0,0,1-5.33,6.3,48.93,48.93,0,0,0,4.67,4.38,48.22,48.22,0,0,0,6.09,4.1A55.52,55.52,0,0,0,83.42,68a52.86,52.86,0,0,0,2.48-5.9,33.33,33.33,0,0,0-6.46-3.77A47.78,47.78,0,0,0,73.24,56.18Z"/><path class="cls-13" d="M30.61,99.25c11.81,1.61,23.18-2.14,30.92-6.74-.92-.64-1.86-1.32-2.81-2.05a52.08,52.08,0,0,1-8.06-7.62c-5.83,2.55-13.16,4-19.95,2.65A21.32,21.32,0,0,1,15.38,73.25a19.39,19.39,0,0,1-1.28-4A48.59,48.59,0,0,0,30.61,99.25Z"/><path class="cls-14" d="M62.13,74.84a46.24,46.24,0,0,1-7.5-10.56l-.3-.59v0a44.34,44.34,0,0,1-2.79-7.77,48.4,48.4,0,0,0-6.12,1.84A47.53,47.53,0,0,0,38.83,61a55.89,55.89,0,0,0,8,16.79,55.23,55.23,0,0,0,3.86,5.08,33.34,33.34,0,0,0,6.5-3.71A48.44,48.44,0,0,0,62.13,74.84Z"/><path class="cls-15" d="M46.15,16.39c-7.3,9.43-9.74,21.15-9.62,30.15,1-.48,2.07-.95,3.19-1.42A52.75,52.75,0,0,1,50.34,42c.71-6.32,3.08-13.41,7.68-18.6A21.34,21.34,0,0,1,76.28,16.2a19.66,19.66,0,0,1,4.14.92l.19.06h0a48.55,48.55,0,0,0-34.42-.83l0,0Z"/><path class="cls-16" d="M110.15,71.28c-4.52-11-13.45-19-21.31-23.42-.1,1.12-.22,2.28-.37,3.47A52.31,52.31,0,0,1,85.9,62.11C91,65.89,96,71.49,98.18,78.07a21.33,21.33,0,0,1-2.93,19.4,19.72,19.72,0,0,1-2.87,3.12s0,0,0,0a48.81,48.81,0,0,0,17.83-29.28.14.14,0,0,0,0-.07Z"/><path class="cls-17" d="M50.3,49.45a49.18,49.18,0,0,0,1.23,6.45,46.22,46.22,0,0,1,12.91-1.22c.22,0,.44,0,.66,0h0a44.25,44.25,0,0,1,8.12,1.47A50,50,0,0,0,74.7,50a48.09,48.09,0,0,0,.49-7.34,55.62,55.62,0,0,0-18.51-1.46,54.92,54.92,0,0,0-6.34.8A33.57,33.57,0,0,0,50.3,49.45Z"/></g></g></g></svg>