<?xml version="1.0" encoding="utf-8"?>
<!-- Generator: Adobe Illustrator 24.0.1, SVG Export Plug-In . SVG Version: 6.00 Build 0)  -->
<svg version="1.1" id="图层_1" xmlns="http://www.w3.org/2000/svg" xmlns:xlink="http://www.w3.org/1999/xlink" x="0px" y="0px"
	 viewBox="0 0 128 128" style="enable-background:new 0 0 128 128;" xml:space="preserve">
<style type="text/css">
	.st0{fill:#0F0F0F;}
	.st1{fill:#FA8C16;}
	.st2{fill:#020202;}
</style>
<g>
	<g>
		<path class="st0" d="M93.3,46.3C93.3,46.3,93.3,46.3,93.3,46.3c-0.1-0.2-0.1-0.4-0.2-0.6l0,0c-0.2-0.6-0.3-1.2-0.6-1.8
			c-2-5.7-5.9-10.7-10.8-14c-0.6-0.4-1.1-0.7-1.7-1.1c-0.1,0-0.1-0.1-0.2-0.1c-0.3-0.2-0.7-0.3-1-0.3c-0.8,0-1.5,0.4-1.9,1.1l0,0
			c0,0,0,0,0,0.1c0,0,0,0,0,0L75.6,32l-2.8,4.8l-2.5,4.3l-6,10.4l-0.2,0.3l-0.3,0.5c-0.1,0.3-0.2,0.5-0.2,0.8c0,1.2,1,2.2,2.2,2.2
			c0.2,0,0.3,0,0.5,0l0.2,0h0l0.1,0l0.5-0.1l11.7-3.1l4.8-1.3l5.3-1.4l2.4-0.6l0,0l0.7-0.2l0,0c0.7-0.3,1.3-1.1,1.3-2
			C93.4,46.5,93.4,46.4,93.3,46.3z M82.5,46.7l-4.8,1.3l-7.5,2l3.9-6.7l2.5-4.3l2.8-4.8c3.9,2.7,6.9,6.5,8.6,11L82.5,46.7z"/>
		<path class="st1" d="M80.4,60.2c0,0.2,0,0.4-0.1,0.6c0,0.1-0.1,0.2-0.1,0.3c-2.3,7.3-9.1,12.5-17.2,12.5c-2.6,0-5-0.5-7.2-1.5
			c-1.3-0.6-2.6-1.3-3.7-2.2C51,69,49.9,68,49,66.8c-0.3-0.4-0.6-0.8-0.9-1.2c-0.7-1.1-1.3-2.2-1.8-3.4c-0.5-1.3-0.9-2.7-1.1-4.1
			c-0.1-0.8-0.2-1.6-0.2-2.5c0-9.3,7-16.9,16.1-17.9l0,0c0.2,0,0.3,0,0.5,0c1.4,0,2.4,1.1,2.4,2.5c0,0.3-0.1,0.6-0.2,0.9l-0.3,0.6
			c-0.4,0.5-1,0.9-1.6,0.9c-0.1,0-0.1,0-0.2,0c-6.6,0.6-11.8,6.2-11.8,13c0,0.4,0,0.8,0,1.2c0.1,1.5,0.5,2.9,1.1,4.1
			c0.2,0.4,0.4,0.8,0.6,1.2c0.4,0.8,0.9,1.5,1.5,2.1c0.4,0.5,0.9,0.9,1.4,1.3c1.1,0.9,2.4,1.7,3.7,2.2c1.5,0.6,3,0.9,4.7,0.9
			c5.8,0,10.8-3.8,12.4-9.1c0-0.1,0.1-0.2,0.1-0.3c0.3-0.7,0.8-1.3,1.6-1.5c0.1,0,0.2,0,0.3-0.1c0.2,0,0.3,0,0.5,0
			C79.3,57.7,80.4,58.8,80.4,60.2z"/>
		<path class="st0" d="M91.4,56.9L91.4,56.9c0,0.3,0,0.6,0,0.8C90.2,72.4,78,84,63,84c-4.5,0-8.7-1-12.4-2.9
			c-1.3-0.6-2.5-1.4-3.7-2.2c-1.2-0.8-2.3-1.7-3.3-2.7c-2.4-2.2-4.4-4.9-5.9-7.8c-0.6-1.1-1.1-2.3-1.5-3.5c-0.5-1.3-0.8-2.7-1.1-4.1
			c-0.3-1.7-0.5-3.4-0.5-5.2c0-15.7,12.7-28.4,28.4-28.4c1.5,0,3,0.1,4.5,0.3c0.2,0,0.5,0.1,0.7,0.1l0,0c1,0.3,1.7,1.3,1.7,2.3
			c0,0.3-0.1,0.7-0.2,1c0,0,0,0,0,0l-0.2,0.4c0,0,0,0,0,0c-0.5,0.6-1.2,1-2,1c0,0-0.1,0-0.1,0c0,0,0,0,0,0c-0.2,0-0.4-0.1-0.7-0.1
			c-1.2-0.2-2.4-0.3-3.6-0.3c-13,0-23.5,10.5-23.5,23.5c0,1.3,0.1,2.6,0.3,3.9c0.2,1.4,0.6,2.8,1.1,4.1c0.4,1.2,1,2.4,1.6,3.5
			c1,1.7,2.2,3.3,3.6,4.8c1,1,2.1,2,3.3,2.8c1.2,0.8,2.4,1.6,3.7,2.2c3,1.4,6.4,2.2,10,2.2c12.4,0,22.6-9.6,23.4-21.8l0,0
			c0-0.2,0-0.3,0-0.5l0,0c0.1-0.8,0.7-1.5,1.5-1.9c0,0,0,0,0,0l0.6-0.2l0,0c0.1,0,0.2,0,0.3,0C90.2,54.7,91.3,55.7,91.4,56.9z"/>
	</g>
	<g>
		<g>
			<path d="M7.8,100.8c-0.7,0-1.4-0.1-2.1-0.4c-0.6-0.2-1.2-0.6-1.6-1c-0.5-0.4-0.8-0.9-1.1-1.5c-0.3-0.6-0.4-1.3-0.4-2
				c0-0.7,0.1-1.4,0.4-2c0.3-0.6,0.6-1.1,1.1-1.5c0.5-0.4,1-0.8,1.6-1c0.6-0.2,1.3-0.4,2.1-0.4h4.7v2.5H7.7c-0.3,0-0.7,0.1-0.9,0.2
				c-0.3,0.1-0.5,0.3-0.7,0.5c-0.2,0.2-0.4,0.5-0.5,0.7c-0.1,0.3-0.2,0.6-0.2,1c0,0.3,0.1,0.7,0.2,1c0.1,0.3,0.3,0.5,0.5,0.7
				c0.2,0.2,0.5,0.4,0.7,0.5c0.3,0.1,0.6,0.2,0.9,0.2h4.9v2.5H7.8z"/>
			<path d="M21.6,100.8l-1.9-2.5h-2.3v-2.3h3.3c0.4,0,0.7-0.1,0.9-0.3c0.2-0.2,0.3-0.5,0.3-0.9c0-0.4-0.1-0.7-0.3-0.9
				s-0.5-0.3-0.9-0.3h-4.1v7.2H14v-9.7h6.7c0.6,0,1.1,0.1,1.5,0.3c0.5,0.2,0.9,0.4,1.2,0.7c0.3,0.3,0.6,0.7,0.8,1.1s0.3,0.9,0.3,1.5
				c0,0.7-0.2,1.4-0.5,2c-0.4,0.6-0.8,1-1.4,1.3l2.4,2.8H21.6z"/>
			<path d="M30.1,100.8c-0.6,0-1.2-0.1-1.8-0.3c-0.5-0.2-1-0.5-1.4-0.9c-0.4-0.4-0.7-0.8-0.9-1.3c-0.2-0.5-0.3-1.1-0.3-1.7v-5.5h2.6
				v5.3c0,0.6,0.2,1,0.5,1.4c0.3,0.3,0.8,0.5,1.3,0.5h2.1c0.5,0,1-0.2,1.3-0.5c0.3-0.3,0.5-0.8,0.5-1.4v-5.3h2.6v5.5
				c0,0.6-0.1,1.2-0.3,1.7c-0.2,0.5-0.5,1-0.9,1.3c-0.4,0.4-0.9,0.7-1.4,0.9c-0.5,0.2-1.1,0.3-1.8,0.3H30.1z"/>
			<path d="M38,100.8v-2.5h7.2c0.2,0,0.3-0.1,0.5-0.2c0.1-0.1,0.2-0.3,0.2-0.5c0-0.2-0.1-0.4-0.2-0.5C45.6,97,45.4,97,45.2,97H41
				c-0.4,0-0.9-0.1-1.2-0.2c-0.4-0.1-0.7-0.3-1-0.6c-0.3-0.3-0.5-0.6-0.6-0.9c-0.2-0.4-0.2-0.8-0.2-1.2c0-0.4,0.1-0.8,0.2-1.2
				c0.2-0.4,0.4-0.7,0.6-0.9c0.3-0.3,0.6-0.5,1-0.6c0.4-0.1,0.8-0.2,1.2-0.2h7.4v2.5h-7.2c-0.2,0-0.3,0.1-0.5,0.2
				c-0.1,0.1-0.2,0.3-0.2,0.5c0,0.2,0.1,0.4,0.2,0.5c0.1,0.1,0.3,0.2,0.5,0.2h4.3c0.5,0,0.9,0.1,1.3,0.2c0.4,0.1,0.7,0.3,1,0.6
				c0.3,0.3,0.5,0.6,0.6,0.9c0.2,0.4,0.2,0.8,0.2,1.2c0,0.4-0.1,0.9-0.2,1.2c-0.2,0.4-0.4,0.7-0.6,0.9c-0.3,0.3-0.6,0.5-1,0.6
				c-0.4,0.1-0.8,0.2-1.3,0.2H38z"/>
			<path d="M52.8,100.8v-7.2h-3.6v-2.5H59v2.5h-3.6v7.2H52.8z"/>
			<path d="M59.7,100.8v-2.5h7.2c0.2,0,0.3-0.1,0.5-0.2c0.1-0.1,0.2-0.3,0.2-0.5c0-0.2-0.1-0.4-0.2-0.5C67.2,97,67.1,97,66.9,97
				h-4.3c-0.4,0-0.9-0.1-1.2-0.2c-0.4-0.1-0.7-0.3-1-0.6c-0.3-0.3-0.5-0.6-0.6-0.9c-0.2-0.4-0.2-0.8-0.2-1.2c0-0.4,0.1-0.8,0.2-1.2
				c0.2-0.4,0.4-0.7,0.6-0.9c0.3-0.3,0.6-0.5,1-0.6c0.4-0.1,0.8-0.2,1.2-0.2H70v2.5h-7.2c-0.2,0-0.3,0.1-0.5,0.2
				c-0.1,0.1-0.2,0.3-0.2,0.5c0,0.2,0.1,0.4,0.2,0.5c0.1,0.1,0.3,0.2,0.5,0.2H67c0.5,0,0.9,0.1,1.3,0.2c0.4,0.1,0.7,0.3,1,0.6
				c0.3,0.3,0.5,0.6,0.6,0.9c0.2,0.4,0.2,0.8,0.2,1.2c0,0.4-0.1,0.9-0.2,1.2c-0.2,0.4-0.4,0.7-0.6,0.9c-0.3,0.3-0.6,0.5-1,0.6
				c-0.4,0.1-0.8,0.2-1.3,0.2H59.7z"/>
			<path d="M78,100.8v-3.9c0-0.8-0.4-1.3-1.3-1.3h-2.5v5.2h-2.5V90.4h2.5v3h2.6c1.2,0,2.2,0.3,2.8,0.9c0.6,0.6,0.9,1.5,0.9,2.6v3.9
				H78z"/>
			<path d="M84.4,100.8c-0.8,0-1.4-0.2-1.8-0.6c-0.4-0.4-0.6-0.9-0.6-1.6c0-0.7,0.2-1.2,0.6-1.6c0.4-0.4,1-0.6,1.8-0.6h2.8v1.4H85
				c-0.4,0-0.6,0.2-0.6,0.5c0,0.3,0.2,0.5,0.5,0.5h3v-2.1c0-0.8-0.4-1.3-1.3-1.3h-4.1v-2.1h4.2c1.2,0,2.2,0.3,2.8,0.9
				c0.6,0.6,0.9,1.5,0.9,2.6v3.9H84.4z"/>
			<path d="M95.9,100.8c-0.6,0-1.1-0.1-1.6-0.3s-0.9-0.4-1.3-0.8c-0.4-0.3-0.6-0.7-0.8-1.2c-0.2-0.5-0.3-1-0.3-1.6
				c0-1.1,0.3-2,1-2.7c0.7-0.7,1.7-1,3-1c0.3,0,0.6,0,0.9,0.1c0.3,0,0.6,0.1,0.9,0.2v2.3c-0.3-0.1-0.5-0.1-0.8-0.1
				c-0.3,0-0.5-0.1-0.7-0.1c-0.6,0-1,0.1-1.3,0.3c-0.3,0.2-0.5,0.6-0.5,1.1c0,0.5,0.1,0.9,0.4,1.2c0.3,0.3,0.6,0.4,1.1,0.4h1.3
				c0.9,0,1.3-0.4,1.3-1.3v-6.9h2.5v6.9c0,1.1-0.3,2-0.9,2.6c-0.6,0.6-1.6,0.9-2.8,0.9H95.9z"/>
			<path d="M106.4,100.8c-0.6,0-1.1-0.1-1.6-0.3c-0.5-0.2-0.9-0.4-1.3-0.8c-0.4-0.3-0.6-0.7-0.8-1.2c-0.2-0.5-0.3-1-0.3-1.5
				c0-0.5,0.1-1,0.3-1.5c0.2-0.5,0.5-0.9,0.8-1.2c0.4-0.3,0.8-0.6,1.3-0.8c0.5-0.2,1-0.3,1.6-0.3h1c0.6,0,1.1,0.1,1.6,0.3
				c0.5,0.2,0.9,0.4,1.3,0.8c0.4,0.3,0.6,0.7,0.8,1.2c0.2,0.5,0.3,1,0.3,1.5c0,0.6-0.1,1.1-0.3,1.5c-0.2,0.5-0.5,0.9-0.8,1.2
				c-0.4,0.3-0.8,0.6-1.3,0.8c-0.5,0.2-1,0.3-1.6,0.3H106.4z M107.4,98.5c0.4,0,0.8-0.1,1.1-0.4c0.3-0.3,0.4-0.6,0.4-1.1
				c0-0.4-0.1-0.8-0.4-1.1c-0.3-0.3-0.6-0.4-1.1-0.4h-1.1c-0.4,0-0.8,0.1-1.1,0.4c-0.3,0.3-0.4,0.6-0.4,1.1c0,0.4,0.1,0.8,0.4,1.1
				c0.3,0.3,0.6,0.4,1.1,0.4H107.4z"/>
			<path d="M121.4,100.8c-0.3,0-0.5-0.1-0.7-0.2c-0.2-0.1-0.3-0.3-0.4-0.6l-1.5-4.4l-1.5,4.4c-0.2,0.5-0.5,0.7-1.1,0.7h-1
				c-0.3,0-0.5-0.1-0.7-0.2c-0.2-0.1-0.3-0.4-0.4-0.7l-1.7-6.6h2.4l1.2,4.8l1.4-4c0.2-0.5,0.5-0.7,1.1-0.7h0.8
				c0.6,0,0.9,0.2,1.1,0.7l1.4,4.1l1.1-4.9h2.4l-1.7,6.6c-0.1,0.3-0.2,0.5-0.4,0.7c-0.2,0.1-0.4,0.2-0.7,0.2H121.4z"/>
		</g>
		<path class="st2" d="M96.1,89.8c0-0.1,0.1-0.2,0.1-0.2c1.5-1,3-1.9,4.5-2.9c0.5-0.3,0.8-0.1,1.1,0.3c-0.2,0.2-0.5,0.2-0.5,0.5
			c-0.2,0.8-0.7,1.2-1.4,1.5c-0.4,0.1-0.3,0.5-0.2,0.8C98.4,88.4,97.3,89.9,96.1,89.8z"/>
	</g>
</g>
</svg>
