<svg width="1858" height="1698" viewBox="0 0 1858 1698" fill="none" xmlns="http://www.w3.org/2000/svg">
<path fill-rule="evenodd" clip-rule="evenodd" d="M928.982 0C833.325 0 755.501 77.8435 755.501 173.524C755.501 269.205 833.325 347.049 928.982 347.049C1024.64 347.049 1102.45 269.205 1102.45 173.524C1102.45 77.8435 1024.64 0 928.982 0ZM928.982 283.022C907.33 283.024 886.164 276.605 868.16 264.574C850.156 252.544 836.124 235.444 827.836 215.436C819.549 195.428 817.379 173.411 821.602 152.17C825.824 130.929 836.249 111.417 851.558 96.1023C866.868 80.7876 886.373 70.3576 907.609 66.1317C928.844 61.9057 950.856 64.0734 970.86 72.3606C990.863 80.6479 1007.96 94.6826 1019.99 112.69C1032.02 130.697 1038.44 151.867 1038.44 173.524C1038.41 202.556 1026.87 230.391 1006.35 250.924C985.829 271.457 958.007 283.013 928.982 283.059V283.022ZM1817.67 499.521C1786.55 457.145 1738.49 434.751 1678.73 434.751C1514.89 434.751 1389.42 601.379 1268.98 767.861C1229.01 704.139 1187.24 641.087 1140.24 590.572C1072.46 517.748 1003.33 482.366 928.982 482.366C854.629 482.366 785.527 517.699 717.715 590.572C682.683 628.257 619.634 721.148 588.999 767.861C468.541 601.379 343.077 434.751 179.231 434.751C119.471 434.751 71.4171 457.145 40.2947 499.521C13.4966 535.927 0 585.235 0 645.985C0 690.676 7.80873 740.359 21.9939 790.274H21.5C21.5 842.904 25.9779 894.487 34.5733 944.664L34.0488 944.762C35.2466 951.196 36.5944 957.587 38.0899 963.936C119.101 1382.19 487.179 1698 929 1698C1430.2 1698 1836.5 1291.6 1836.5 790.274H1835.96C1850.14 740.359 1857.94 690.674 1857.94 645.985C1858 585.223 1844.42 535.927 1817.67 499.521ZM1748.15 980.53C1686.4 1071 1611.51 1122.25 1539.54 1122.25C1448.37 1122.25 1378.67 1050.5 1313.05 955.904C1305.54 1097.26 1281.08 1229.76 1243.87 1341.96C1344.7 1318.36 1434.25 1283.8 1509.3 1241.35C1635.57 1169.92 1717.95 1078.04 1748.15 980.53ZM1250.07 901.487C1158.26 1018.36 1037.93 1144.57 928.957 1144.57C806.566 1144.57 707.278 1035.24 607.953 902.446C611.934 1074.2 641.904 1233.06 688.718 1358.04C763.333 1370.33 843.542 1376.92 928.499 1376.92C1013.45 1376.92 1094.23 1369.9 1169.69 1356.96C1216.36 1231.91 1246.19 1073.11 1250.07 901.487ZM544.947 955.831C479.292 1050.46 409.579 1122.25 318.398 1122.25C246.877 1122.25 172.465 1071.64 110.939 982.215C145.984 1084.65 229.201 1176.64 353.776 1246.47C427.578 1287.84 515.325 1321.04 614.676 1343.59C577.151 1231.03 552.488 1097.9 544.947 955.831ZM629.525 823.798C707.045 702.823 820.827 546.393 928.982 546.393C1051.5 546.393 1141.93 684.645 1228.44 823.798C1142.64 937.584 1020.46 1080.54 928.994 1080.54C839.05 1080.54 752.163 986.588 667.724 875.288C654.922 858.425 642.144 841.172 629.525 823.798ZM1710.61 920.6C1658.52 1006.77 1594.55 1058.22 1539.54 1058.22C1453.85 1058.22 1381.19 948.306 1305.51 826.576C1306.73 824.773 1308.1 822.921 1309.43 821.166C1423.93 662.652 1542.44 498.778 1678.73 498.778C1755.2 498.778 1794 548.269 1794 645.985C1794 730.213 1762.05 835.507 1710.61 920.6ZM318.435 1058.22C263.414 1058.22 199.439 1006.77 147.402 920.6C95.9617 835.507 63.9745 730.261 63.9745 645.985C63.9745 548.269 102.771 498.778 179.231 498.778C315.572 498.778 433.995 662.651 548.545 821.165L548.546 821.166C549.206 822.071 549.867 822.989 550.522 823.9L550.536 823.919L550.557 823.949C551.196 824.836 551.83 825.718 552.456 826.576C476.788 948.306 404.104 1058.22 318.435 1058.22ZM1511.05 173.524C1511.05 77.8435 1588.87 0 1684.53 0C1780.15 0 1858 77.8435 1858 173.524C1858 269.205 1780.19 347.049 1684.53 347.049C1588.87 347.049 1511.05 269.205 1511.05 173.524ZM1623.71 264.568C1641.71 276.6 1662.88 283.022 1684.53 283.022V283.059C1713.56 283.017 1741.38 271.462 1761.9 250.928C1782.43 230.395 1793.97 202.558 1794 173.524C1794 151.868 1787.58 130.698 1775.55 112.691C1763.52 94.6841 1746.43 80.6495 1726.42 72.3618C1706.42 64.0742 1684.41 61.9058 1663.17 66.1308C1641.94 70.3558 1622.43 80.7845 1607.12 96.098C1591.81 111.412 1581.39 130.922 1577.16 152.163C1572.94 173.403 1575.11 195.419 1583.39 215.427C1591.68 235.435 1605.71 252.537 1623.71 264.568ZM173.481 0C77.8234 0 0.0478516 77.8435 0.0478516 173.524C0.0478516 269.205 77.8234 347.049 173.481 347.049C269.138 347.049 346.962 269.205 346.962 173.524C346.962 77.8435 269.077 0 173.481 0ZM173.481 283.022C151.829 283.022 130.664 276.6 112.662 264.568C94.6598 252.537 80.6286 235.435 72.3431 215.427C64.0575 195.419 61.8896 173.403 66.1136 152.163C70.3375 130.922 80.7635 111.412 96.0732 96.098C111.383 80.7845 130.889 70.3558 152.124 66.1308C173.359 61.9058 195.37 64.0742 215.373 72.3618C235.376 80.6495 252.473 94.6841 264.502 112.691C276.531 130.698 282.951 151.868 282.951 173.524C282.919 202.558 271.376 230.395 250.854 250.928C230.333 271.462 202.507 283.017 173.481 283.059V283.022ZM772.031 1618.38C531.921 1573.13 327.785 1425.97 206.237 1223.55C240.666 1252.68 279.437 1279.33 321.999 1303.19C412.111 1353.7 519.951 1392.19 641.64 1415.67C644.046 1421.42 646.489 1427.09 648.968 1432.69C682.072 1507.45 722.321 1570.41 768.631 1615.14C769.76 1616.23 770.893 1617.31 772.031 1618.38ZM813.783 1568.37C779.487 1535.25 747.075 1487.81 718.481 1428.23C785.095 1437.22 855.287 1441.94 928.499 1441.94C1001.89 1441.94 1072.61 1436.9 1139.91 1427.4C1111.22 1487.37 1078.67 1535.09 1044.22 1568.37C1005.95 1605.33 967.064 1622.98 929 1622.98C890.935 1622.98 852.046 1605.33 813.783 1568.37ZM1209.03 1432.69C1211.71 1426.65 1214.34 1420.52 1216.93 1414.31C1340.18 1389.69 1449.99 1349.59 1541.3 1297.94C1582.23 1274.78 1619.72 1249.13 1653.1 1221.32C1531.71 1424.89 1326.96 1572.96 1085.97 1618.38C1087.11 1617.31 1088.24 1616.23 1089.37 1615.14C1135.68 1570.41 1175.93 1507.45 1209.03 1432.69Z" fill="url(#paint0_linear_7_113)"/>
<defs>
<linearGradient id="paint0_linear_7_113" x1="929" y1="0" x2="929" y2="1698.42" gradientUnits="userSpaceOnUse">
<stop stop-color="#F7D365"/>
<stop offset="0.50205" stop-color="#EA4683"/>
<stop offset="1" stop-color="#735FA1"/>
</linearGradient>
</defs>
</svg>
