<svg width="252" height="253" viewBox="0 0 252 253" fill="none" xmlns="http://www.w3.org/2000/svg">
<path d="M155.53 63L113.776 101.65C109.453 105.659 103.827 107.875 97.9873 107.903L85.5417 107.93L85.5014 63H63V191.401H75.2711C82.1316 191.401 88.5356 187.693 91.8921 181.605C91.9189 181.564 91.9323 181.523 91.9592 181.496C94.1879 177.418 95.3022 169.36 95.0874 163.86C94.6041 151.287 92.617 148.017 92.617 148.017C92.2009 156.636 83.3668 157.101 83.3668 157.101C89.65 150.986 86.2264 146.361 86.2264 146.361C75.0965 154.434 72.3174 145.814 72.1026 145.034C72.4517 145.335 75.6201 148.031 81.6348 139.63C87.9986 130.751 96.4836 115.947 101.881 112.144C107.291 108.327 112.42 108.642 112.42 108.642C112.42 108.642 115.374 104.564 123.187 101.171C131.001 97.8058 136.009 102.745 136.009 102.745C128.021 109.312 117.173 120.093 116.568 135.539C116.085 148.044 142.534 169.497 137.888 201.183C140.668 193.987 141.782 186.777 140.829 177.856C140.063 170.66 135.512 155.624 135.512 155.624L160.913 191.387H189L134.102 114.538L189 63H155.53Z" fill="url(#paint0_linear)"/>
<path d="M104.373 118.287C102.601 121.283 102.601 122.2 102.601 122.2C102.601 122.2 108.804 121.133 110.482 113.622C110.495 113.622 106.521 114.661 104.373 118.287Z" fill="url(#paint1_linear)"/>
<defs>
<linearGradient id="paint0_linear" x1="252" y1="218.806" x2="139.985" y2="40.3731" gradientUnits="userSpaceOnUse">
<stop stop-color="#E40C5B"/>
<stop offset="1" stop-color="#FF4C3B"/>
</linearGradient>
<linearGradient id="paint1_linear" x1="252" y1="218.806" x2="139.985" y2="40.3731" gradientUnits="userSpaceOnUse">
<stop stop-color="#E40C5B"/>
<stop offset="1" stop-color="#FF4C3B"/>
</linearGradient>
</defs>
</svg>
