<?xml version="1.0" encoding="iso-8859-1"?>
<!-- Generator: Adobe Illustrator 21.0.0, SVG Export Plug-In . SVG Version: 6.00 Build 0)  -->
<svg version="1.1" id="&#x56FE;&#x5C42;_1" xmlns="http://www.w3.org/2000/svg" xmlns:xlink="http://www.w3.org/1999/xlink" x="0px"
	 y="0px" viewBox="0 0 1280 1280" style="enable-background:new 0 0 1280 1280;" xml:space="preserve">
<rect x="-0.98" y="121.709" style="fill:#1C1C1E;" width="1280.966" height="385.621"/>
<rect x="454.212" y="733.084" width="418.983" height="120.719"/>
<g>
	<rect x="5033.804" y="-1702.584" width="72.559" height="324.65"/>
	<rect x="5105.818" y="-1590.182" width="72.639" height="73.113"/>
	<rect x="5177.487" y="-1516.905" width="72.639" height="73.113"/>
	<rect x="5229.645" y="-1452.652" width="72.639" height="73.113"/>
	<rect x="5229.645" y="-1703.218" width="72.639" height="73.113"/>
	<rect x="5176.665" y="-1663.515" width="72.639" height="73.113"/>
</g>
<rect x="5044.842" y="-1287.814" width="46.223" height="206.814"/>
<rect x="5090.718" y="-1216.209" width="46.274" height="46.576"/>
<rect x="5136.375" y="-1169.53" width="46.274" height="46.576"/>
<rect x="5169.601" y="-1128.598" style="fill:#2803FF;" width="46.274" height="46.576"/>
<rect x="5169.601" y="-1288.218" width="46.274" height="46.576"/>
<rect x="5135.851" y="-1262.926" width="46.274" height="46.576"/>
<g>
	<rect x="5044.842" y="-992.717" width="46.223" height="206.814"/>
	<rect x="5090.718" y="-921.112" width="46.274" height="46.576"/>
	<rect x="5136.375" y="-874.432" width="46.274" height="46.576"/>
	<rect x="5169.601" y="-833.5" style="fill:#0AE21E;" width="46.274" height="46.576"/>
	<rect x="5169.601" y="-993.12" width="46.274" height="46.576"/>
	<rect x="5135.851" y="-967.828" width="46.274" height="46.576"/>
</g>
<rect x="480.524" y="594.066" width="18.239" height="69.858"/>
<rect x="555.258" y="594.066" width="18.239" height="69.858"/>
<rect x="599.743" y="594.066" width="18.239" height="69.858"/>
<rect x="498.626" y="613.254" width="18.259" height="18.378"/>
<rect x="559.613" y="622.32" width="41.908" height="18.378"/>
<rect x="711.374" y="594.066" width="18.239" height="69.858"/>
<rect x="723.021" y="645.617" width="41.908" height="18.378"/>
<rect x="516.641" y="631.673" width="18.259" height="18.378"/>
<rect x="529.103" y="645.514" width="18.259" height="18.378"/>
<rect x="516.435" y="594.82" width="30.851" height="18.378"/>
<path d="M655.404,592.375h19.017l30.305,71.695h-21.152l-5.186-12.712h-27.458l-5.085,12.712h-20.746L655.404,592.375z
	 M672.692,636.002l-7.932-20.237l-8.034,20.237H672.692z"/>
<path d="M800.76,592.586h19.017l30.305,71.695h-21.152l-5.186-12.712h-27.458l-5.084,12.712h-20.746L800.76,592.586z
	 M818.048,636.214l-7.932-20.237l-8.034,20.237H818.048z"/>
<g>
	<g>
		<rect x="482.467" y="758.432" style="fill:#FFFFFF;" width="18.239" height="69.858"/>
		<rect x="500.569" y="777.62" style="fill:#FFFFFF;" width="18.259" height="18.378"/>
		<rect x="518.584" y="796.04" style="fill:#FFFFFF;" width="18.259" height="18.378"/>
		<rect x="531.695" y="809.601" style="fill:#FFFFFF;" width="18.259" height="18.378"/>
		<rect x="518.378" y="759.187" style="fill:#FFFFFF;" width="30.851" height="18.378"/>
	</g>
	<g>
		<rect x="557.201" y="758.432" style="fill:#FFFFFF;" width="18.239" height="69.858"/>
		<rect x="601.686" y="758.432" style="fill:#FFFFFF;" width="18.239" height="69.858"/>
		<rect x="561.556" y="786.687" style="fill:#FFFFFF;" width="41.908" height="18.378"/>
		<rect x="713.317" y="758.432" style="fill:#FFFFFF;" width="18.239" height="69.858"/>
		<rect x="724.964" y="809.984" style="fill:#FFFFFF;" width="41.908" height="18.378"/>
		<path style="fill:#FFFFFF;" d="M657.347,756.742h19.017l30.305,71.695h-21.152l-5.186-12.712h-27.458l-5.085,12.712h-20.746
			L657.347,756.742z M674.635,800.369l-7.932-20.237l-8.034,20.237H674.635z"/>
		<path style="fill:#FFFFFF;" d="M802.703,756.953h19.017l30.305,71.695h-21.152l-5.186-12.712h-27.458l-5.085,12.712h-20.746
			L802.703,756.953z M819.991,800.58l-7.932-20.237l-8.034,20.237H819.991z"/>
	</g>
</g>
<g>
	<rect x="482.467" y="1083.041" style="fill:#03FFFF;" width="18.239" height="69.858"/>
	<rect x="500.569" y="1102.229" style="fill:#03FFFF;" width="18.259" height="18.378"/>
	<rect x="518.584" y="1120.649" style="fill:#03FFFF;" width="18.259" height="18.378"/>
	<rect x="531.036" y="1134.209" style="fill:#03FFFF;" width="18.259" height="18.378"/>
	<rect x="518.378" y="1083.795" style="fill:#03FFFF;" width="30.851" height="18.378"/>
</g>
<g>
	<rect x="454.212" y="1057.692" style="fill:#1C1C1E;" width="418.983" height="120.719"/>
	<g>
		<rect x="557.201" y="1083.041" style="fill:#03FFFF;" width="18.239" height="69.858"/>
		<rect x="601.686" y="1083.041" style="fill:#03FFFF;" width="18.239" height="69.858"/>
		<rect x="561.556" y="1111.295" style="fill:#03FFFF;" width="41.908" height="18.378"/>
		<rect x="713.317" y="1083.041" style="fill:#03FFFF;" width="18.239" height="69.858"/>
		<rect x="724.964" y="1134.593" style="fill:#03FFFF;" width="41.908" height="18.378"/>
		<path style="fill:#03FFFF;" d="M657.347,1081.351h19.017l30.305,71.695h-21.152l-5.186-12.712h-27.458l-5.085,12.712h-20.746
			L657.347,1081.351z M674.635,1124.978l-7.932-20.237l-8.034,20.237H674.635z"/>
		<path style="fill:#03FFFF;" d="M802.703,1081.562h19.017l30.305,71.695h-21.152l-5.186-12.712h-27.458l-5.085,12.712h-20.746
			L802.703,1081.562z M819.991,1125.189l-7.932-20.237l-8.034,20.237H819.991z"/>
	</g>
</g>
<g>
	<g>
		<rect x="482.467" y="925.694" style="fill:#03FFFF;" width="18.239" height="69.858"/>
		<rect x="500.569" y="944.883" style="fill:#03FFFF;" width="18.259" height="18.378"/>
		<rect x="518.584" y="963.302" style="fill:#03FFFF;" width="18.259" height="18.378"/>
		<rect x="531.695" y="976.863" style="fill:#03FFFF;" width="18.259" height="18.378"/>
		<rect x="518.378" y="926.449" style="fill:#03FFFF;" width="30.851" height="18.378"/>
	</g>
	<g>
		<rect x="557.201" y="925.694" style="fill:#03FFFF;" width="18.239" height="69.858"/>
		<rect x="601.686" y="925.694" style="fill:#03FFFF;" width="18.239" height="69.858"/>
		<rect x="561.556" y="953.949" style="fill:#03FFFF;" width="41.908" height="18.378"/>
		<rect x="713.317" y="925.694" style="fill:#03FFFF;" width="18.239" height="69.858"/>
		<rect x="724.964" y="977.246" style="fill:#03FFFF;" width="41.908" height="18.378"/>
		<path style="fill:#03FFFF;" d="M657.347,924.004h19.017l30.305,71.695h-21.152l-5.186-12.712h-27.458l-5.085,12.712h-20.746
			L657.347,924.004z M674.635,967.631l-7.932-20.237l-8.034,20.237H674.635z"/>
		<path style="fill:#03FFFF;" d="M802.703,924.215h19.017l30.305,71.695h-21.152l-5.186-12.712h-27.458l-5.085,12.712h-20.746
			L802.703,924.215z M819.991,967.842l-7.932-20.237l-8.034,20.237H819.991z"/>
	</g>
</g>
<g>
	<g>
		<rect x="31.799" y="35.063" style="fill:#03FFFF;" width="12.925" height="49.504"/>
		<rect x="44.627" y="48.661" style="fill:#03FFFF;" width="12.939" height="13.024"/>
		<rect x="57.393" y="61.714" style="fill:#03FFFF;" width="12.939" height="13.024"/>
		<rect x="66.684" y="71.324" style="fill:#03FFFF;" width="12.939" height="13.024"/>
		<rect x="57.247" y="35.598" style="fill:#03FFFF;" width="21.863" height="13.024"/>
	</g>
	<g>
		<rect x="84.759" y="35.063" style="fill:#03FFFF;" width="12.925" height="49.504"/>
		<rect x="116.283" y="35.063" style="fill:#03FFFF;" width="12.925" height="49.504"/>
		<rect x="87.845" y="55.086" style="fill:#03FFFF;" width="29.698" height="13.024"/>
		<rect x="195.389" y="35.063" style="fill:#03FFFF;" width="12.925" height="49.504"/>
		<rect x="203.643" y="71.595" style="fill:#03FFFF;" width="29.698" height="13.024"/>
		<path style="fill:#03FFFF;" d="M155.726,33.865h13.476l21.475,50.806h-14.99l-3.675-9.008h-19.458l-3.603,9.008h-14.701
			L155.726,33.865z M167.977,64.781l-5.621-14.341l-5.693,14.341H167.977z"/>
		<path style="fill:#03FFFF;" d="M258.732,34.015h13.476l21.475,50.806h-14.99l-3.675-9.008h-19.458l-3.603,9.008h-14.701
			L258.732,34.015z M270.983,64.931l-5.621-14.341l-5.693,14.341H270.983z"/>
	</g>
</g>
<g>
	<g>
		<rect x="1204.35" y="1204.495" style="fill:#03FFFF;" width="12.925" height="49.504"/>
		<rect x="1217.177" y="1218.092" style="fill:#03FFFF;" width="12.939" height="13.024"/>
		<rect x="1229.944" y="1231.145" style="fill:#03FFFF;" width="12.939" height="13.024"/>
		<rect x="1239.235" y="1240.755" style="fill:#03FFFF;" width="12.939" height="13.024"/>
		<rect x="1229.798" y="1205.029" style="fill:#03FFFF;" width="21.863" height="13.024"/>
	</g>
</g>
<g>
	<rect x="500.344" y="179.289" style="fill:#FFFFFF;" width="74.126" height="281.921"/>
	<rect x="573.913" y="254.281" style="fill:#FFFFFF;" width="74.208" height="74.692"/>
	<rect x="646.13" y="329.14" style="fill:#FFFFFF;" width="74.208" height="74.692"/>
	<rect x="697.413" y="386.254" style="fill:#FFFFFF;" width="74.208" height="74.692"/>
	<rect x="646.291" y="179.363" style="fill:#FFFFFF;" width="125.385" height="74.692"/>
</g>
</svg>
