<svg id="b692ab22-f331-4ca3-94fb-d3db755e71e1" data-name="Ebene 1" xmlns="http://www.w3.org/2000/svg" xmlns:xlink="http://www.w3.org/1999/xlink" viewBox="0 0 380 380"><defs><style>.a705d6be-194c-42f1-b12c-37d1f8ab5b0a{fill:url(#fd43175a-91f0-4e2e-9d23-4e18621c9534);}.a29fb044-0251-459e-b026-813b6fdbecc9{fill:url(#a29b503c-1af9-49b0-94ab-846d13ac9965);}.a20ad7d0-9a2f-4f8b-b2b6-2cfebac900c6{fill:#8c175b;}.a7866f00-937b-4c0a-8df0-62064948d806{fill:url(#a864a964-0a37-4f43-8aa7-5154e883442e);}.a6cb8e36-e050-4d3e-a112-ebd7d4ed5744{fill:url(#a5e46261-118a-470a-95df-c0ce552a9c28);}</style><linearGradient id="fd43175a-91f0-4e2e-9d23-4e18621c9534" x1="97.14" y1="71.15" x2="190.01" y2="71.15" gradientUnits="userSpaceOnUse"><stop offset="0" stop-color="#f96943"/><stop offset="0.45" stop-color="#f46640"/><stop offset="1" stop-color="#e55d38"/></linearGradient><linearGradient id="a29b503c-1af9-49b0-94ab-846d13ac9965" x1="197.49" y1="300.28" x2="282.86" y2="300.28" gradientUnits="userSpaceOnUse"><stop offset="0" stop-color="#ce4e2c"/><stop offset="1" stop-color="#ce4e2c"/></linearGradient><linearGradient id="a864a964-0a37-4f43-8aa7-5154e883442e" x1="197.49" y1="148.21" x2="282.92" y2="148.21" gradientUnits="userSpaceOnUse"><stop offset="0" stop-color="#e05935"/><stop offset="1" stop-color="#ce4e2c"/></linearGradient><linearGradient id="a5e46261-118a-470a-95df-c0ce552a9c28" x1="98.08" y1="225.5" x2="190.01" y2="225.5" gradientUnits="userSpaceOnUse"><stop offset="0" stop-color="#f96943"/><stop offset="0.46" stop-color="#f46640"/><stop offset="1" stop-color="#e55c38"/></linearGradient></defs><path class="a705d6be-194c-42f1-b12c-37d1f8ab5b0a" d="M190,68.93,142.07,35.36H104.56c-4.09,0-7.42,2.75-7.42,6.14V79.94l38.57,27Z"/><path class="a29fb044-0251-459e-b026-813b6fdbecc9" d="M197.49,304.77l41.47,29h36.48a8.26,8.26,0,0,0,3.1-.58,6.87,6.87,0,0,0,2.12-1.2l0,0a5.62,5.62,0,0,0,2.18-4.34V288.51l-31.07-21.76Z"/><path class="a20ad7d0-9a2f-4f8b-b2b6-2cfebac900c6" d="M282.92,40.22V79.93L115,197.49a46.93,46.93,0,0,0-17.94,36.92V134l141-98.73h37.8C279.39,35.36,282.28,37.46,282.92,40.22Z"/><path class="a7866f00-937b-4c0a-8df0-62064948d806" d="M246.09,184.23l17.7-12.39.09-.07a47,47,0,0,0,19-37.79l-31.13-21.79-54.3,38,48.6,34Z"/><path class="a6cb8e36-e050-4d3e-a112-ebd7d4ed5744" d="M190,223.5l-48.6-34L115,208a47.11,47.11,0,0,0-16.94,27.22l37.63,26.35Z"/><path class="a20ad7d0-9a2f-4f8b-b2b6-2cfebac900c6" d="M263.88,171.77l-.09.07L97.08,288.57v76.05L282.92,234.49V134A47,47,0,0,1,263.88,171.77Z"/></svg>