<svg width="89" height="89" viewBox="0 0 89 89" fill="none" xmlns="http://www.w3.org/2000/svg">
<rect width="89" height="89" fill="black"/>
<path d="M41.791 45.963L45.5763 46.069L45.6028 43.631L41.844 43.5515L41.791 45.963Z" fill="#19AE82"/>
<path d="M68.9235 26.3265C65.4823 22.855 60.3735 21 54.1264 21C49.9705 21 46.8205 22.219 44.7823 24.6305C42.6911 27.095 42.1882 30.2485 42.1617 32.4745L42.0558 38.8345L45.5764 38.914L45.6823 32.554C45.7088 30.9375 46.2382 29.321 47.1646 28.1815C48.1441 26.9625 49.4941 26.2735 50.9764 26.2735C51.0029 26.2735 51.0294 26.2735 51.0558 26.2735C52.7499 26.3 54.047 26.6975 54.947 27.4395C55.8999 28.2345 56.3764 29.427 56.3499 31.017C56.3235 32.5805 55.6882 34.0645 54.5499 35.151C53.4117 36.2375 51.9294 36.847 50.3411 36.794L46.8999 36.741L46.8735 38.9405L50.3146 38.9935C50.3676 38.9935 50.4205 38.9935 50.4735 38.9935C54.8676 38.9935 58.4941 35.4425 58.5735 31.017C58.5999 29.9305 58.4147 28.8705 58.0176 27.89L57.8588 27.4925L58.1235 27.8105C59.2617 29.215 59.8705 30.9905 59.8441 32.7925C59.7646 36.9795 56.3499 40.3185 52.1941 40.3185C52.1411 40.3185 52.0882 40.3185 52.0617 40.3185L45.6558 40.2125L42.0029 40.133L32.0764 39.9475C31.997 39.9475 31.9176 39.9475 31.8382 39.9475C28.3705 39.9475 25.0882 41.2725 22.5735 43.7105C20.0058 46.2015 18.5499 49.5405 18.497 53.0915C18.4705 55.1585 18.8941 57.146 19.7676 59.001L19.6617 59.054C18.0205 56.775 17.1999 54.0985 17.2529 51.316C17.3058 47.871 18.7088 44.6645 21.197 42.253C23.6852 39.868 26.9411 38.5695 30.3823 38.6225L40.8117 38.808L40.8382 36.6085L30.4088 36.423C30.3294 36.423 30.2235 36.423 30.1176 36.423C26.1999 36.423 22.4676 37.9335 19.6352 40.663C16.7235 43.472 15.0823 47.235 15.0029 51.263C14.9235 56.245 16.4852 60.6705 19.4235 63.665C22.5999 66.898 27.2588 68.5675 33.2941 68.5675C37.3705 68.5675 40.4676 67.322 42.5852 64.8575C44.2529 62.8965 45.2058 60.1405 45.2588 57.1195L45.3646 50.7595L41.8441 50.68L41.7382 57.04C41.7117 58.6565 41.1823 60.273 40.2558 61.4125C39.2499 62.658 37.8999 63.347 36.3646 63.3205C34.6705 63.294 33.3735 62.8965 32.4735 62.1545C31.5205 61.3595 31.0441 60.167 31.0705 58.577C31.1235 55.344 33.7705 52.7735 36.9735 52.7735C36.9999 52.7735 37.0529 52.7735 37.0794 52.7735L40.5205 52.8265L40.547 50.627L37.1058 50.574C37.0529 50.574 36.9999 50.574 36.947 50.574C32.5529 50.574 28.9264 54.125 28.847 58.5505C28.8205 59.637 29.0323 60.6705 29.4294 61.6775L29.5882 62.075L29.3235 61.757C28.1852 60.3525 27.5764 58.577 27.6029 56.775C27.6823 52.588 31.097 49.249 35.2529 49.249C35.3058 49.249 35.3588 49.249 35.3852 49.249L41.7911 49.355L45.4441 49.4345L55.3705 49.62C55.4499 49.62 55.5294 49.62 55.6088 49.62C62.8617 49.62 68.8441 43.79 68.9764 36.476C69.0029 34.409 68.5794 32.4215 67.7058 30.5665L67.8117 30.5135C69.4529 32.7925 70.2735 35.469 70.2205 38.2515C70.1676 41.6965 68.7646 44.903 66.2764 47.3145C63.7882 49.6995 60.5323 50.998 57.0911 50.945L46.6617 50.7595L46.6352 52.959L57.0646 53.1445C57.1441 53.1445 57.2499 53.1445 57.3294 53.1445C61.2735 53.1445 65.2705 51.6075 68.3411 48.9045C71.5705 46.0425 73.397 42.2795 73.4764 38.3045C73.5558 33.667 71.9411 29.4005 68.9235 26.3265ZM66.7794 36.37C66.647 42.5445 61.6705 47.4205 55.6088 47.4205C55.5294 47.4205 55.4764 47.4205 55.397 47.4205L45.4705 47.235L41.8176 47.1555L35.4117 47.0495C35.3588 47.0495 35.2794 47.0495 35.2264 47.0495C32.6588 47.0495 30.2499 48.03 28.397 49.832C26.4911 51.6605 25.4323 54.125 25.3794 56.7485C25.3529 58.153 25.6176 59.531 26.1735 60.803L26.3852 61.28L26.0676 60.8825C24.7441 59.16 24.0823 57.146 24.1088 54.973C24.1882 49.832 28.397 45.7245 33.5058 45.7245C33.5588 45.7245 33.6117 45.7245 33.6646 45.7245L40.5999 45.857L40.6264 43.6575L33.7176 43.472C33.6382 43.472 33.5852 43.472 33.5058 43.472C27.2058 43.472 22.0176 48.56 21.9117 54.8935C21.8852 56.616 22.2294 58.312 22.9441 59.8755L23.1823 60.432L22.8382 59.955C21.3558 57.9675 20.6147 55.609 20.6676 53.1445C20.7735 47.0495 25.7499 42.1735 31.8117 42.1735C31.8911 42.1735 31.9441 42.1735 32.0235 42.1735L42.0029 42.359L45.5235 42.4385V42.412H45.5764L51.9823 42.518C52.0352 42.518 52.1146 42.518 52.1676 42.518C54.7352 42.518 57.1441 41.5375 58.997 39.7355C60.9029 37.907 61.9617 35.4425 62.0146 32.819C62.0411 31.4145 61.7764 30.0365 61.2205 28.7645L61.0088 28.2875L61.3264 28.685C62.6499 30.381 63.3117 32.4215 63.2852 34.5945C63.2323 37.112 62.2264 39.444 60.3999 41.193C58.6264 42.889 56.3235 43.843 53.8882 43.843C53.8352 43.843 53.7823 43.843 53.7294 43.843L46.7941 43.7105L46.7676 45.91L53.7029 46.0425C53.7823 46.0425 53.8352 46.0425 53.9147 46.0425C56.9323 46.0425 59.7911 44.8765 61.9617 42.783C64.1852 40.6365 65.4558 37.7215 65.5088 34.621C65.5352 32.8985 65.1911 31.2025 64.4764 29.639L64.2382 29.0825L64.6088 29.5595C66.0646 31.547 66.8323 33.9055 66.7794 36.37Z" fill="#19AE82"/>
</svg>
