<svg version="1.1" x="0" y="0" viewBox="0 0 792 612" style="enable-background:new 0 0 792 612" xml:space="preserve" id="svg1300" xmlns="http://www.w3.org/2000/svg"><defs id="defs1304"><clipPath clipPathUnits="userSpaceOnUse" id="clipPath1762"><path style="fill:#333" id="rect1764" d="M169.19 140.538h117.439v152.716H169.19z"/></clipPath></defs><style type="text/css" id="style1081">.st0{display:none}.st3{display:inline}.st4{fill:#fff}.st6{fill:#ef4a33}.st7{fill:#f8c400}</style><linearGradient id="SVGID_1_" gradientUnits="userSpaceOnUse" x1="0" y1="612" x2=".707" y2="611.293"><stop offset="0" style="stop-color:#1eab4b" id="stop1083"/><stop offset=".983" style="stop-color:#19361a" id="stop1085"/></linearGradient><circle style="fill:#333" id="path1408" cx="247.322" cy="212.852" r="47.601"/><g id="layer1"><a id="a1535" clip-path="url(#clipPath1762)"><g id="Black_copy_2" transform="translate(-79.145 -100.44)" style="enable-background:new 0 0 792 612"><g id="g1229"><path id="path1019" d="M339.31 285.28c-5.06 0-8.88 1.48-11.38 4.4-2.55 2.98-3.14 6.83-3.19 9.53l-.14 7.73 4.28.1.14-7.73c.04-1.98.69-3.92 1.8-5.32 1.18-1.5 2.82-2.31 4.62-2.31h.11c2.05.04 3.64.51 4.73 1.41 1.17.97 1.75 2.43 1.72 4.33-.03 1.91-.81 3.7-2.2 5.03a7.101 7.101 0 0 1-5.11 2.01l-4.18-.08-.05 2.68 4.18.08h.18c5.36 0 9.76-4.31 9.86-9.68.02-1.31-.21-2.59-.69-3.8l-.19-.47.32.39a9.356 9.356 0 0 1 2.1 6.04c-.09 5.07-4.25 9.14-9.3 9.14h-.17l-7.81-.14-4.44-.1-12.07-.22h-.3c-4.22 0-8.21 1.61-11.27 4.56a16.153 16.153 0 0 0-4.97 11.4c-.05 2.5.47 4.92 1.53 7.18l-.13.08c-1.98-2.76-3-6.02-2.94-9.42.08-4.19 1.78-8.1 4.8-11.01 3.02-2.91 6.98-4.49 11.17-4.4l12.7.23.05-2.68-12.7-.23h-.34c-4.78 0-9.29 1.82-12.75 5.16a18.244 18.244 0 0 0-5.62 12.89c-.11 6.07 1.81 11.42 5.39 15.07 3.87 3.94 9.54 5.94 16.86 5.94 4.94 0 8.74-1.52 11.3-4.52 2.04-2.4 3.2-5.74 3.27-9.41l.14-7.73-4.28-.1-.14 7.73c-.04 1.98-.69 3.92-1.8 5.32-1.21 1.53-2.88 2.35-4.73 2.31-2.05-.04-3.64-.51-4.73-1.41-1.17-.97-1.75-2.42-1.72-4.33.07-3.91 3.28-7.05 7.17-7.05h.13l4.18.08.05-2.68-4.18-.07h-.18c-5.36 0-9.76 4.31-9.86 9.68-.02 1.31.21 2.59.69 3.8l.19.47-.32-.39a9.32 9.32 0 0 1-2.1-6.04c.09-5.07 4.25-9.14 9.3-9.14h.17l7.81.14 4.44.1 12.07.22h.3c8.83 0 16.08-7.1 16.24-15.96.04-2.5-.47-4.92-1.53-7.18l.13-.08c1.98 2.76 3 6.02 2.94 9.42-.08 4.19-1.78 8.09-4.8 11.01-3.02 2.91-6.99 4.48-11.17 4.4l-12.7-.23-.05 2.68 12.7.23h.33c4.8 0 9.66-1.87 13.38-5.16 3.94-3.48 6.15-8.06 6.24-12.89.1-5.64-1.87-10.8-5.54-14.55-4.14-4.23-10.35-6.46-17.94-6.46zm1.79 32.07h-.25l-12.07-.22-4.44-.1-7.81-.14h-.22c-3.12 0-6.06 1.19-8.32 3.36a11.914 11.914 0 0 0-3.67 8.41c-.03 1.71.3 3.37.97 4.94l.24.57-.38-.49c-1.6-2.08-2.42-4.56-2.37-7.17.11-6.23 5.22-11.23 11.43-11.23h.21l8.44.15.05-2.68-8.44-.15h-.26c-7.67 0-13.98 6.17-14.12 13.87-.04 2.1.38 4.14 1.24 6.05l.3.67-.43-.59a13.43 13.43 0 0 1-2.65-8.29c.13-7.4 6.19-13.32 13.56-13.32h.25l12.14.22v.04l4.28.1v-.04h.08l7.81.14h.22c3.12 0 6.06-1.19 8.32-3.36 2.31-2.23 3.61-5.21 3.67-8.41.03-1.71-.3-3.37-.97-4.94l-.24-.57.38.49c1.6 2.08 2.42 4.56 2.37 7.17-.05 3.05-1.3 5.9-3.5 8.02a11.375 11.375 0 0 1-7.93 3.21h-.21l-8.44-.15-.05 2.68 8.44.15h.26c3.67 0 7.14-1.4 9.79-3.96 2.72-2.62 4.25-6.14 4.32-9.9.04-2.1-.38-4.14-1.25-6.05l-.3-.67.43.59a13.45 13.45 0 0 1 2.65 8.29c-.11 7.38-6.17 13.31-13.53 13.31zm-12.22-1.64.06-2.95-4.59-.11-.06 2.96zm173.13 11.49c0-6.7-5.45-12.14-12.14-12.14-6.7 0-12.14 5.45-12.14 12.14 0 6.7 5.45 12.15 12.14 12.15 3.35 0 6.38-1.36 8.58-3.56l-3.24-3.24a7.537 7.537 0 0 1-5.34 2.22c-3.37 0-6.23-2.22-7.2-5.28h19.35v-2.29zm-12.15-7.55c3.37 0 6.23 2.22 7.2 5.28h-14.41c.98-3.06 3.84-5.28 7.21-5.28zm-21.59-16.23v32.85c0 4.65 4.59 4.59 4.59 4.59v-32.84c0-4.67-4.59-4.6-4.59-4.6zm-12.58 0v16.61c-2.23-2.56-5.51-4.19-9.17-4.19-6.7 0-12.14 5.45-12.14 12.14 0 6.7 5.45 12.15 12.14 12.15 3.66 0 6.94-1.63 9.17-4.19v.33c0 4.65 4.59 4.59 4.59 4.59V308c-.01-4.65-4.59-4.58-4.59-4.58zm-9.17 32.12c-4.17 0-7.56-3.39-7.56-7.56s3.39-7.56 7.56-7.56 7.56 3.39 7.56 7.56-3.39 7.56-7.56 7.56zm-28.78-19.71c-6.7 0-12.14 5.45-12.14 12.14 0 6.7 5.45 12.15 12.14 12.15s12.14-5.45 12.14-12.15c0-6.69-5.45-12.14-12.14-12.14zm0 19.71c-4.17 0-7.56-3.39-7.56-7.56s3.39-7.56 7.56-7.56 7.56 3.39 7.56 7.56c-.01 4.17-3.4 7.56-7.56 7.56zM394.59 308v25.85c-1.53-2.79-3.28-6.15-4.97-9.41-.66-1.27-1.31-2.53-1.95-3.75-3.16-6.04-5.77-10.89-7.75-14.4-1.04-1.85-3.03-3.46-5.12-2.91-1.01.26-2.7 1.22-2.7 4.62v32.1s4.59-.25 4.59-5.22V309.9c1.85 3.33 4.17 7.67 6.92 12.92.64 1.22 1.29 2.47 1.95 3.74 2 3.85 4.07 7.82 5.8 10.91.9 1.6 2.51 3.02 4.28 3.02.28 0 .56-.03.84-.11 1.01-.26 2.7-1.22 2.7-4.62v-32.1s-4.59.14-4.59 4.34z" style="fill:#19ae82"/></g></g></a></g></svg>