<?xml version="1.0" encoding="utf-8"?>
<!-- Generator: Adobe Illustrator 23.0.0, SVG Export Plug-In . SVG Version: 6.00 Build 0)  -->
<svg version="1.1" id="Capa_1" xmlns="http://www.w3.org/2000/svg" xmlns:xlink="http://www.w3.org/1999/xlink" x="0px" y="0px"
	 viewBox="0 0 512 512" style="enable-background:new 0 0 512 512;" xml:space="preserve">
<style type="text/css">
	.st0{fill:url(#SVGID_1_);}
	.st1{fill:url(#SVGID_2_);}
	.st2{fill:url(#SVGID_3_);}
	.st3{fill:url(#SVGID_4_);}
	.st4{fill:url(#SVGID_5_);}
	.st5{fill:url(#SVGID_6_);}
	.st6{fill:url(#SVGID_7_);}
	.st7{fill:url(#SVGID_8_);}
	.st8{fill:url(#SVGID_9_);}
	.st9{fill:url(#SVGID_10_);}
	.st10{fill:url(#SVGID_11_);}
	.st11{fill:url(#SVGID_12_);}
	.st12{fill:url(#SVGID_13_);}
	.st13{fill:url(#SVGID_14_);}
	.st14{fill:#3DB0FF;}
	.st15{fill:url(#SVGID_15_);}
	.st16{fill:url(#SVGID_16_);}
	.st17{fill:url(#SVGID_17_);}
	.st18{fill:url(#SVGID_18_);}
	.st19{fill:url(#SVGID_19_);}
	.st20{fill:url(#SVGID_20_);}
	.st21{fill:url(#SVGID_21_);}
	.st22{fill:url(#SVGID_22_);}
	.st23{fill:url(#SVGID_23_);}
	.st24{fill:url(#SVGID_24_);}
	.st25{fill:url(#SVGID_25_);}
	.st26{fill:url(#SVGID_26_);}
	.st27{fill:url(#SVGID_27_);}
	.st28{fill:url(#SVGID_28_);}
	.st29{fill:url(#SVGID_29_);}
	.st30{fill:url(#SVGID_30_);}
	.st31{fill:url(#SVGID_31_);}
	.st32{fill:url(#SVGID_32_);}
	.st33{fill:url(#SVGID_33_);}
	.st34{fill:url(#SVGID_34_);}
</style>
<g>
	<g>
		
			<radialGradient id="SVGID_1_" cx="404.1114" cy="403.6432" r="130.0018" gradientTransform="matrix(0.3924 0.9198 -0.9198 0.3924 469.4046 -275.1227)" gradientUnits="userSpaceOnUse">
			<stop  offset="0" style="stop-color:#3D8BFF"/>
			<stop  offset="1" style="stop-color:#3DE6FF"/>
		</radialGradient>
		<path class="st0" d="M377.63,250.76l-110.89-4.93l0.15,19.83l110.8-6.6C388.69,258.4,388.64,251.25,377.63,250.76z"/>
		
			<radialGradient id="SVGID_2_" cx="404.1114" cy="403.6432" r="130.0018" gradientTransform="matrix(0.3924 0.9198 -0.9198 0.3924 469.4046 -275.1227)" gradientUnits="userSpaceOnUse">
			<stop  offset="0" style="stop-color:#3D8BFF"/>
			<stop  offset="1" style="stop-color:#3DE6FF"/>
		</radialGradient>
		<path class="st1" d="M377.63,250.76l-110.89-4.93l0.15,19.83l110.8-6.6C388.69,258.4,388.64,251.25,377.63,250.76z"/>
		
			<radialGradient id="SVGID_3_" cx="404.1114" cy="403.6432" r="130.0018" gradientTransform="matrix(0.3924 0.9198 -0.9198 0.3924 469.4046 -275.1227)" gradientUnits="userSpaceOnUse">
			<stop  offset="0" style="stop-color:#3D8BFF"/>
			<stop  offset="1" style="stop-color:#3DE6FF"/>
		</radialGradient>
		<path class="st2" d="M377.63,250.76l-110.89-4.93l0.15,19.83l110.8-6.6C388.69,258.4,388.64,251.25,377.63,250.76z"/>
		
			<radialGradient id="SVGID_4_" cx="480.4473" cy="29.7104" r="130.0018" gradientTransform="matrix(-0.3924 -0.9198 0.9198 -0.3924 416.4902 710.6007)" gradientUnits="userSpaceOnUse">
			<stop  offset="0" style="stop-color:#3D8BFF"/>
			<stop  offset="1" style="stop-color:#3DE6FF"/>
		</radialGradient>
		<path class="st3" d="M134.37,261.24l110.89,4.93l-0.15-19.83l-110.8,6.6C123.31,253.6,123.36,260.75,134.37,261.24z"/>
		
			<radialGradient id="SVGID_5_" cx="585.4612" cy="342.8203" r="130.0018" gradientTransform="matrix(-0.6026 0.7981 -0.7981 -0.6026 883.6212 -4.5656)" gradientUnits="userSpaceOnUse">
			<stop  offset="0" style="stop-color:#3D8BFF"/>
			<stop  offset="1" style="stop-color:#3DE6FF"/>
		</radialGradient>
		<path class="st4" d="M321.07,358.89l-50.9-98.64l-17.12,10l60.86,92.83C319.95,372.29,326.12,368.68,321.07,358.89z"/>
		
			<radialGradient id="SVGID_6_" cx="299.0974" cy="90.5334" r="130.0018" gradientTransform="matrix(0.6026 -0.7981 0.7981 0.6026 2.2737 440.0436)" gradientUnits="userSpaceOnUse">
			<stop  offset="0" style="stop-color:#3D8BFF"/>
			<stop  offset="1" style="stop-color:#3DE6FF"/>
		</radialGradient>
		<path class="st5" d="M190.93,153.11l50.9,98.64l17.12-10l-60.86-92.83C192.05,139.71,185.88,143.32,190.93,153.11z"/>
		
			<radialGradient id="SVGID_7_" cx="623.043" cy="155.5399" r="130.0018" gradientTransform="matrix(-0.9923 -0.1239 0.1239 -0.9923 855.4919 488.6996)" gradientUnits="userSpaceOnUse">
			<stop  offset="0" style="stop-color:#3D8BFF"/>
			<stop  offset="1" style="stop-color:#3DE6FF"/>
		</radialGradient>
		<path class="st6" d="M199.3,363.73l60.08-93.33l-17.21-9.85l-50.08,99.06C187.13,369.44,193.34,373,199.3,363.73z"/>
		
			<radialGradient id="SVGID_8_" cx="261.5157" cy="277.8138" r="130.0018" gradientTransform="matrix(0.9923 0.1239 -0.1239 0.9923 30.4028 -53.2216)" gradientUnits="userSpaceOnUse">
			<stop  offset="0" style="stop-color:#3D8BFF"/>
			<stop  offset="1" style="stop-color:#3DE6FF"/>
		</radialGradient>
		<path class="st7" d="M312.7,148.27l-60.08,93.33l17.21,9.85l50.08-99.06C324.87,142.56,318.66,139,312.7,148.27z"/>
		<g>
			
				<radialGradient id="SVGID_9_" cx="199.1119" cy="352.3971" r="142.0197" gradientTransform="matrix(0.8702 0.4927 -0.4927 0.8702 264.5954 -163.7484)" gradientUnits="userSpaceOnUse">
				<stop  offset="0" style="stop-color:#3D8BFF"/>
				<stop  offset="1" style="stop-color:#3DE6FF"/>
			</radialGradient>
			<path class="st8" d="M357.57,139.01l-38.81,6.89l-14.06-36.82c-1.72-4.49-7.18-2.98-6.34,1.76l8.47,47.71l7.23,4.09l45.27-17.29
				C363.82,143.64,362.31,138.17,357.57,139.01z"/>
			
				<radialGradient id="SVGID_10_" cx="486.7812" cy="101.5998" r="142.0197" gradientTransform="matrix(-0.8702 -0.4927 0.4927 -0.8702 621.2994 599.2264)" gradientUnits="userSpaceOnUse">
				<stop  offset="0" style="stop-color:#3D8BFF"/>
				<stop  offset="1" style="stop-color:#3DE6FF"/>
			</radialGradient>
			<path class="st9" d="M154.43,372.99l38.81-6.89l14.06,36.82c1.72,4.49,7.18,2.98,6.34-1.76l-8.47-47.71l-7.23-4.09l-45.27,17.29
				C148.18,368.36,149.69,373.83,154.43,372.99z"/>
			
				<radialGradient id="SVGID_11_" cx="378.6469" cy="412.8311" r="142.0197" gradientTransform="matrix(0.0178 0.9998 -0.9998 0.0178 680.9144 -129.6998)" gradientUnits="userSpaceOnUse">
				<stop  offset="0" style="stop-color:#3D8BFF"/>
				<stop  offset="1" style="stop-color:#3DE6FF"/>
			</radialGradient>
			<path class="st10" d="M410.15,284.79l-25.65-29.93l24.57-30.82c3-3.76-1.08-7.7-4.74-4.57l-36.79,31.54l0.15,8.3l37.89,30.21
				C409.34,292.52,413.28,288.44,410.15,284.79z"/>
			
				<radialGradient id="SVGID_12_" cx="308.786" cy="37.6347" r="142.0197" gradientTransform="matrix(-0.0178 -0.9998 0.9998 -0.0178 204.9804 565.1779)" gradientUnits="userSpaceOnUse">
				<stop  offset="0" style="stop-color:#3D8BFF"/>
				<stop  offset="1" style="stop-color:#3DE6FF"/>
			</radialGradient>
			<path class="st11" d="M101.85,227.21l25.65,29.93l-24.57,30.82c-3,3.76,1.08,7.7,4.74,4.57l36.79-31.54l-0.15-8.3l-37.89-30.21
				C102.66,219.48,98.72,223.56,101.85,227.21z"/>
			
				<radialGradient id="SVGID_13_" cx="524.348" cy="290.4836" r="142.0197" gradientTransform="matrix(-0.8575 0.5145 -0.5145 -0.8575 862.7922 250.4856)" gradientUnits="userSpaceOnUse">
				<stop  offset="0" style="stop-color:#3D8BFF"/>
				<stop  offset="1" style="stop-color:#3DE6FF"/>
			</radialGradient>
			<path class="st12" d="M306.5,402.67l13.12-37.17l38.97,5.91c4.76,0.72,6.13-4.78,1.6-6.38L314.5,348.9l-7.12,4.27l-7.26,47.91
				C299.39,405.83,304.9,407.21,306.5,402.67z"/>
			
				<radialGradient id="SVGID_14_" cx="164.3728" cy="163.7129" r="142.0197" gradientTransform="matrix(0.8575 -0.5145 0.5145 0.8575 23.1025 184.9924)" gradientUnits="userSpaceOnUse">
				<stop  offset="0" style="stop-color:#3D8BFF"/>
				<stop  offset="1" style="stop-color:#3DE6FF"/>
			</radialGradient>
			<path class="st13" d="M205.5,109.33l-13.12,37.17l-38.97-5.91c-4.76-0.72-6.13,4.78-1.6,6.38l45.69,16.13l7.12-4.27l7.26-47.91
				C212.61,106.17,207.1,104.79,205.5,109.33z"/>
			<circle class="st14" cx="256" cy="256" r="24.08"/>
		</g>
		<g>
			
				<radialGradient id="SVGID_15_" cx="199.7521" cy="342.3308" r="84.7132" gradientTransform="matrix(0.8702 0.4927 -0.4927 0.8702 264.5954 -163.7484)" gradientUnits="userSpaceOnUse">
				<stop  offset="0" style="stop-color:#3D8BFF"/>
				<stop  offset="1" style="stop-color:#3DE6FF"/>
			</radialGradient>
			<path class="st15" d="M325.43,171.72l-23.15,4.11l-8.39-21.96c-1.02-2.68-4.28-1.78-3.78,1.05l5.05,28.46l4.31,2.44l27-10.31
				C329.16,174.48,328.26,171.22,325.43,171.72z"/>
			
				<radialGradient id="SVGID_16_" cx="487.4214" cy="91.5335" r="84.7132" gradientTransform="matrix(-0.8702 -0.4927 0.4927 -0.8702 621.2994 599.2264)" gradientUnits="userSpaceOnUse">
				<stop  offset="0" style="stop-color:#3D8BFF"/>
				<stop  offset="1" style="stop-color:#3DE6FF"/>
			</radialGradient>
			<path class="st16" d="M186.57,340.28l23.15-4.11l8.39,21.96c1.02,2.68,4.28,1.78,3.78-1.05l-5.05-28.46l-4.31-2.44l-27,10.31
				C182.84,337.52,183.74,340.78,186.57,340.28z"/>
			
				<radialGradient id="SVGID_17_" cx="378.5172" cy="404.5304" r="84.7132" gradientTransform="matrix(0.0178 0.9998 -0.9998 0.0178 680.9144 -129.6998)" gradientUnits="userSpaceOnUse">
				<stop  offset="0" style="stop-color:#3D8BFF"/>
				<stop  offset="1" style="stop-color:#3DE6FF"/>
			</radialGradient>
			<path class="st17" d="M363.87,272.98l-15.3-17.85l14.66-18.38c1.79-2.24-0.65-4.59-2.82-2.73l-21.94,18.81l0.09,4.95l22.6,18.02
				C363.38,277.6,365.73,275.16,363.87,272.98z"/>
			
				<radialGradient id="SVGID_18_" cx="308.6563" cy="29.3339" r="84.7132" gradientTransform="matrix(-0.0178 -0.9998 0.9998 -0.0178 204.9804 565.1779)" gradientUnits="userSpaceOnUse">
				<stop  offset="0" style="stop-color:#3D8BFF"/>
				<stop  offset="1" style="stop-color:#3DE6FF"/>
			</radialGradient>
			<path class="st18" d="M148.13,239.02l15.3,17.85l-14.66,18.38c-1.79,2.24,0.65,4.59,2.82,2.73l21.94-18.81l-0.09-4.95
				l-22.6-18.02C148.62,234.4,146.27,236.84,148.13,239.02z"/>
			
				<radialGradient id="SVGID_19_" cx="523.5743" cy="280.3175" r="84.7132" gradientTransform="matrix(-0.8575 0.5145 -0.5145 -0.8575 862.7922 250.4856)" gradientUnits="userSpaceOnUse">
				<stop  offset="0" style="stop-color:#3D8BFF"/>
				<stop  offset="1" style="stop-color:#3DE6FF"/>
			</radialGradient>
			<path class="st19" d="M295.13,357.94l7.83-22.17l23.25,3.52c2.84,0.43,3.66-2.85,0.95-3.81l-27.25-9.62l-4.25,2.55l-4.33,28.58
				C290.89,359.83,294.18,360.65,295.13,357.94z"/>
			
				<radialGradient id="SVGID_20_" cx="163.5991" cy="153.5468" r="84.7132" gradientTransform="matrix(0.8575 -0.5145 0.5145 0.8575 23.1025 184.9924)" gradientUnits="userSpaceOnUse">
				<stop  offset="0" style="stop-color:#3D8BFF"/>
				<stop  offset="1" style="stop-color:#3DE6FF"/>
			</radialGradient>
			<path class="st20" d="M216.87,154.06l-7.83,22.17l-23.25-3.52c-2.84-0.43-3.66,2.85-0.95,3.81l27.25,9.62l4.25-2.55l4.33-28.58
				C221.11,152.17,217.82,151.35,216.87,154.06z"/>
			<circle class="st14" cx="256" cy="256" r="14.37"/>
		</g>
	</g>
	<g>
		
			<radialGradient id="SVGID_21_" cx="280.4883" cy="298.231" r="112.5127" gradientTransform="matrix(0.5065 0.8622 -0.8622 0.5065 479.6214 -201.781)" gradientUnits="userSpaceOnUse">
			<stop  offset="0" style="stop-color:#3D8BFF"/>
			<stop  offset="1" style="stop-color:#3DE6FF"/>
		</radialGradient>
		<path class="st21" d="M469,158.2l-29.35-10.67l4.97-30.83c0.61-3.76-3.74-4.89-5.05-1.31l-13.12,36.08l3.33,5.67l37.9,6.11
			C471.45,163.86,472.58,159.5,469,158.2z"/>
		
			<radialGradient id="SVGID_22_" cx="403.8849" cy="-62.9147" r="112.5127" gradientTransform="matrix(-0.5065 -0.8622 0.8622 -0.5065 406.2734 637.259)" gradientUnits="userSpaceOnUse">
			<stop  offset="0" style="stop-color:#3D8BFF"/>
			<stop  offset="1" style="stop-color:#3DE6FF"/>
		</radialGradient>
		<path class="st22" d="M43,353.8l29.35,10.67l-4.97,30.83c-0.61,3.76,3.74,4.89,5.05,1.31l13.12-36.08l-3.33-5.67l-37.9-6.11
			C40.55,348.15,39.42,352.5,43,353.8z"/>
		
			<radialGradient id="SVGID_23_" cx="470.8885" cy="262.8484" r="112.5127" gradientTransform="matrix(-0.4853 0.8743 -0.8743 -0.4853 822.9202 36.1827)" gradientUnits="userSpaceOnUse">
			<stop  offset="0" style="stop-color:#3D8BFF"/>
			<stop  offset="1" style="stop-color:#3DE6FF"/>
		</radialGradient>
		<path class="st23" d="M446,393.58l-5.72-30.7l29.08-11.38c3.55-1.39,2.31-5.71-1.43-5.01l-37.74,7.03l-3.19,5.75l14,35.75
			C442.37,398.56,446.69,397.32,446,393.58z"/>
		
			<radialGradient id="SVGID_24_" cx="222.521" cy="-26.9214" r="112.5127" gradientTransform="matrix(0.4853 -0.8743 0.8743 0.4853 62.9745 399.2953)" gradientUnits="userSpaceOnUse">
			<stop  offset="0" style="stop-color:#3D8BFF"/>
			<stop  offset="1" style="stop-color:#3DE6FF"/>
		</radialGradient>
		<path class="st24" d="M66,118.42l5.72,30.7L42.65,160.5c-3.55,1.39-2.31,5.71,1.43,5.01l37.74-7.03l3.19-5.75l-14-35.75
			C69.63,113.44,65.31,114.68,66,118.42z"/>
		
			<radialGradient id="SVGID_25_" cx="531.8013" cy="88.1934" r="112.5127" gradientTransform="matrix(-0.9999 0.016 -0.016 -0.9999 789.95 456.3416)" gradientUnits="userSpaceOnUse">
			<stop  offset="0" style="stop-color:#3D8BFF"/>
			<stop  offset="1" style="stop-color:#3DE6FF"/>
		</radialGradient>
		<path class="st25" d="M233.99,483.77l23.75-20.28L282.11,483c2.98,2.38,6.1-0.85,3.63-3.75l-24.93-29.19l-6.58,0.1l-23.99,29.97
			C227.86,483.11,231.09,486.24,233.99,483.77z"/>
		
			<radialGradient id="SVGID_26_" cx="156.7334" cy="158.741" r="112.5127" gradientTransform="matrix(0.9999 -0.016 0.016 0.9999 95.9447 -20.8636)" gradientUnits="userSpaceOnUse">
			<stop  offset="0" style="stop-color:#3D8BFF"/>
			<stop  offset="1" style="stop-color:#3DE6FF"/>
		</radialGradient>
		<path class="st26" d="M278.01,28.23l-23.75,20.28L229.89,29c-2.98-2.38-6.1,0.85-3.63,3.75l24.93,29.19l6.58-0.1l23.99-29.97
			C284.14,28.89,280.91,25.76,278.01,28.23z"/>
		
			<radialGradient id="SVGID_27_" cx="282.348" cy="381.6986" r="153.4738" gradientTransform="matrix(0.5065 0.8622 -0.8622 0.5065 479.6214 -201.781)" gradientUnits="userSpaceOnUse">
			<stop  offset="0" style="stop-color:#3D8BFF"/>
			<stop  offset="1" style="stop-color:#3DE6FF"/>
		</radialGradient>
		<path class="st27" d="M436.01,190.1l-40.03-14.56l6.78-42.05c0.83-5.13-5.11-6.67-6.88-1.79l-17.9,49.21l4.55,7.74l51.7,8.33
			C439.35,197.81,440.89,191.87,436.01,190.1z"/>
		
			<radialGradient id="SVGID_28_" cx="405.7445" cy="20.5529" r="153.4738" gradientTransform="matrix(-0.5065 -0.8622 0.8622 -0.5065 406.2734 637.259)" gradientUnits="userSpaceOnUse">
			<stop  offset="0" style="stop-color:#3D8BFF"/>
			<stop  offset="1" style="stop-color:#3DE6FF"/>
		</radialGradient>
		<path class="st28" d="M75.99,321.9l40.03,14.56l-6.78,42.05c-0.83,5.13,5.11,6.67,6.88,1.79l17.9-49.21l-4.55-7.74l-51.7-8.33
			C72.65,314.19,71.11,320.13,75.99,321.9z"/>
		
			<radialGradient id="SVGID_29_" cx="467.9173" cy="345.9896" r="153.4738" gradientTransform="matrix(-0.4853 0.8743 -0.8743 -0.4853 822.9202 36.1827)" gradientUnits="userSpaceOnUse">
			<stop  offset="0" style="stop-color:#3D8BFF"/>
			<stop  offset="1" style="stop-color:#3DE6FF"/>
		</radialGradient>
		<path class="st29" d="M404.39,377.3l-7.8-41.87l39.66-15.53c4.84-1.9,3.15-7.79-1.96-6.84l-51.48,9.59l-4.36,7.85l19.09,48.76
			C399.45,384.09,405.34,382.41,404.39,377.3z"/>
		
			<radialGradient id="SVGID_30_" cx="219.5499" cy="56.2197" r="153.4738" gradientTransform="matrix(0.4853 -0.8743 0.8743 0.4853 62.9745 399.2953)" gradientUnits="userSpaceOnUse">
			<stop  offset="0" style="stop-color:#3D8BFF"/>
			<stop  offset="1" style="stop-color:#3DE6FF"/>
		</radialGradient>
		<path class="st30" d="M107.61,134.7l7.8,41.87L75.75,192.1c-4.84,1.9-3.15,7.79,1.96,6.84l51.48-9.59l4.36-7.85l-19.09-48.76
			C112.55,127.91,106.66,129.59,107.61,134.7z"/>
		
			<radialGradient id="SVGID_31_" cx="531.4362" cy="165.45" r="153.4738" gradientTransform="matrix(-0.9999 0.016 -0.016 -0.9999 789.95 456.3416)" gradientUnits="userSpaceOnUse">
			<stop  offset="0" style="stop-color:#3D8BFF"/>
			<stop  offset="1" style="stop-color:#3DE6FF"/>
		</radialGradient>
		<path class="st31" d="M224.81,445.51l32.39-27.66l33.25,26.62c4.06,3.25,8.32-1.16,4.95-5.11l-34.01-39.82l-8.97,0.14
			l-32.72,40.88C216.46,444.62,220.86,448.89,224.81,445.51z"/>
		
			<radialGradient id="SVGID_32_" cx="156.3683" cy="235.9976" r="153.4738" gradientTransform="matrix(0.9999 -0.016 0.016 0.9999 95.9447 -20.8636)" gradientUnits="userSpaceOnUse">
			<stop  offset="0" style="stop-color:#3D8BFF"/>
			<stop  offset="1" style="stop-color:#3DE6FF"/>
		</radialGradient>
		<path class="st32" d="M287.19,66.49L254.8,94.15l-33.25-26.62c-4.06-3.25-8.32,1.16-4.95,5.11l34.01,39.82l8.97-0.14l32.72-40.88
			C295.54,67.38,291.14,63.11,287.19,66.49z"/>
		<circle class="st14" cx="256" cy="256" r="19.08"/>
	</g>
	<radialGradient id="SVGID_33_" cx="255.5085" cy="254.7334" r="245.9728" gradientUnits="userSpaceOnUse">
		<stop  offset="0" style="stop-color:#CCE6FF"/>
		<stop  offset="0.2859" style="stop-color:#CAE3FF"/>
		<stop  offset="0.5207" style="stop-color:#C6D9FF"/>
		<stop  offset="0.7374" style="stop-color:#BEC7FF"/>
		<stop  offset="0.942" style="stop-color:#B2AFFF"/>
		<stop  offset="0.9944" style="stop-color:#AFA8FF"/>
	</radialGradient>
	<path class="st33" d="M467.63,368.96l-153-99.77c-8.15-7.27-8.43-20.97,1.55-28.12l151.3-98.28c4.55-2.96,7.53-5.94,9.12-8.59
		c1.6-2.65,1.82-4.98,0.87-6.63s-3.08-2.62-6.17-2.56c-3.1,0.06-7.16,1.15-12,3.62l-163.1,83.29c-9.9,2.83-21.05-3.27-22.77-14.56
		l-8.8-181.08c-1.05-21.69-15.15-21.74-16.35-0.06L238.22,197.7l0,0l0.1-1.77c-0.25,4.55-2.23,8.62-5.25,11.63
		c-0.05,0.05-0.1,0.11-0.16,0.16c-0.42,0.41-0.86,0.78-1.31,1.15c-0.12,0.1-0.24,0.2-0.36,0.29c-0.39,0.3-0.81,0.57-1.23,0.84
		c-0.19,0.12-0.37,0.25-0.57,0.37c-0.36,0.21-0.73,0.39-1.1,0.57c-0.27,0.13-0.53,0.28-0.8,0.4c-0.28,0.12-0.58,0.22-0.87,0.33
		c-1.45,0.54-2.98,0.91-4.56,1.05c-0.2,0.02-0.39,0.05-0.59,0.07c-0.4,0.02-0.8,0-1.2,0c-0.33,0-0.66,0-1-0.02
		c-0.32-0.02-0.65-0.08-0.98-0.12c-0.43-0.06-0.87-0.11-1.3-0.2c-0.25-0.05-0.49-0.12-0.74-0.18c-0.54-0.13-1.08-0.28-1.61-0.47
		c-0.15-0.05-0.3-0.11-0.46-0.17c-0.68-0.26-1.35-0.54-2.03-0.88L52.58,128.9c-19.32-9.91-26.4,2.28-8.21,14.14l152.29,99.3
		c8.42,6.76,9.41,20.1,0.51,27.71L44.53,369.2c-18.21,11.83-11.16,24.03,8.18,14.16l164.15-83.83c9.08-2.17,18.97,3.01,21.58,12.72
		l8.91,183.46c1.05,21.69,15.15,21.74,16.35,0.06l10.18-183.57c2.56-9.51,12.7-15.84,22.9-12.5l162.64,83.41
		C478.74,393.01,485.82,380.82,467.63,368.96z M268.25,277.35l-24.57-0.08l-12.31-21.29l12.38-21.33l24.57,0.08l12.31,21.29
		L268.25,277.35z"/>
</g>
<circle class="st14" cx="256" cy="255.74" r="27.69"/>
<radialGradient id="SVGID_34_" cx="140" cy="437" r="314.2499" gradientUnits="userSpaceOnUse">
	<stop  offset="0" style="stop-color:#6B00AA;stop-opacity:0.2"/>
	<stop  offset="0.9944" style="stop-color:#6B00AA;stop-opacity:0"/>
</radialGradient>
<path class="st34" d="M467.63,368.96l-16.08-10.49l17.81-6.97c3.55-1.39,2.31-5.71-1.43-5.01l-27.04,5.04l-32.05-20.9l27.4-10.73
	c4.84-1.9,3.15-7.79-1.96-6.84l-40.74,7.59l-78.92-51.46c-1.94-1.73-3.43-3.83-4.44-6.11l32.59-1.94l18.39,14.66
	c2.22,1.8,4.57-0.64,2.71-2.82l-10.68-12.46l14.9-0.89l37.49,29.89c3.76,3,7.7-1.08,4.57-4.73l-24.61-28.72
	c0.5-0.81,0.49-1.67-0.03-2.47l23.57-29.56c3-3.76-1.08-7.7-4.74-4.57l-36.02,30.88l-15.38-0.68l10.3-12.91
	c1.79-2.24-0.65-4.59-2.82-2.73l-17.71,15.19l-32.27-1.43c1.25-2.53,3.15-4.84,5.75-6.7l77.85-50.57l40.2,6.48
	c5.12,0.83,6.66-5.11,1.78-6.88l-26.52-9.64l32.79-21.3l25.4,4.09c3.77,0.61,4.9-3.75,1.32-5.05l-16.19-5.88l14.67-9.53
	c4.55-2.96,7.53-5.94,9.12-8.59c1.6-2.65,1.82-4.98,0.87-6.63s-3.08-2.62-6.17-2.56c-3.1,0.06-7.16,1.15-12,3.62l-18.09,9.24
	l3.41-21.17c0.61-3.76-3.74-4.89-5.05-1.31l-10.41,28.63l-30.62,15.64l4.22-26.17c0.83-5.13-5.11-6.67-6.88-1.79l-13.1,36
	l-86.58,44.22c-2.2,0.63-4.47,0.79-6.68,0.58l14.33-28.35l22.61-8.64c2.69-1.03,1.79-4.29-1.04-3.79l-16.8,2.98l6.26-12.38
	l44.44-16.97c4.49-1.71,2.98-7.18-1.76-6.34l-35.91,6.38c-0.3-2.19-1.85-3.04-3.91-2.13l-13.05-34.17
	c-1.72-4.49-7.18-2.98-6.34,1.76l8.31,46.8l-7.12,11.05l-5.66-14.82c-1.02-2.68-4.28-1.78-3.78,1.05l3.96,22.3l-17.75,27.57
	c-1.44-2.11-2.46-4.61-2.89-7.43l-4.69-96.49l23.56-29.43c3.24-4.06-1.16-8.33-5.11-4.95l-19.32,16.5l-1.55-31.83l15.44-19.28
	c2.38-2.98-0.85-6.11-3.75-3.64l-12.29,10.49l-1.09-22.44c-1.05-21.69-15.15-21.74-16.35-0.06l-1.46,26.33L229.89,29
	c-2.98-2.38-6.1,0.85-3.63,3.75l19.82,23.2l-1.66,29.89l-22.87-18.31c-4.06-3.25-8.32,1.16-4.95,5.11l26.81,31.39l-5.1,91.94
	c-0.2,3.46-1.4,6.64-3.29,9.28l-17.84-27.21l3.49-23.03c0.44-2.84-2.85-3.66-3.8-0.95l-5.4,15.28l-6.88-10.49l0.02-0.01l7.26-47.91
	c0.73-4.75-4.78-6.13-6.38-1.59l-12.26,34.73c-2.15-1.05-3.78-0.25-4.11,1.95l-35.72-5.42c-4.76-0.72-6.13,4.78-1.6,6.38
	l43.96,15.52l6.57,12.73l-16.55-2.51c-2.84-0.43-3.66,2.85-0.95,3.81l22.22,7.84l14.66,28.4c-0.06,0.01-0.13,0.02-0.19,0.02
	c-0.4,0.02-0.8,0-1.2,0c-0.33,0-0.66,0-1-0.02c-0.32-0.02-0.65-0.08-0.98-0.12c-0.43-0.06-0.87-0.11-1.3-0.2
	c-0.25-0.05-0.49-0.12-0.74-0.18c-0.54-0.13-1.08-0.28-1.61-0.47c-0.15-0.05-0.3-0.11-0.46-0.17c-0.68-0.26-1.35-0.54-2.03-0.88
	l-84.08-43.11l-13.66-34.9c-1.91-4.83-7.8-3.15-6.85,1.96l4.62,24.79l-30.75-15.77l-10.47-26.74c-1.38-3.54-5.7-2.3-5.01,1.44
	l3.58,19.2l-17-8.72c-19.32-9.91-26.4,2.28-8.21,14.14l16.09,10.49l-17.81,6.97c-3.55,1.39-2.31,5.71,1.43,5.01l27.03-5.03
	l32.04,20.89l-27.4,10.73c-4.84,1.9-3.15,7.79,1.96,6.84l40.75-7.59l78.2,50.99c2.25,1.8,3.96,4.08,5.1,6.58l-32.53,1.94
	l-18.39-14.66c-2.22-1.8-4.57,0.64-2.71,2.82l10.68,12.46l-14.9,0.89l-37.49-29.89c-3.76-3-7.7,1.08-4.57,4.73l24.61,28.72
	c-0.5,0.81-0.49,1.67,0.03,2.47l-23.57,29.56c-3,3.76,1.08,7.7,4.74,4.57l36.02-30.88l15.38,0.68l-10.3,12.91
	c-1.79,2.24,0.65,4.59,2.82,2.73l17.71-15.19l32.37,1.44c-1.03,2.13-2.52,4.12-4.51,5.82l-79.2,51.45l-40.2-6.48
	c-5.12-0.83-6.66,5.11-1.78,6.88l26.51,9.64l-32.79,21.3l-25.39-4.09c-3.77-0.6-4.9,3.75-1.32,5.05l16.18,5.88l-14.65,9.52
	c-18.21,11.83-11.16,24.03,8.18,14.16l18.08-9.24l-3.41,21.18c-0.61,3.76,3.74,4.89,5.05,1.31l10.41-28.64l30.62-15.64l-4.22,26.17
	c-0.83,5.13,5.11,6.67,6.88,1.79l13.1-36.01l87.64-44.76c1.92-0.46,3.88-0.57,5.8-0.4l-14.52,28.72l-22.61,8.64
	c-2.69,1.03-1.79,4.29,1.04,3.79l16.8-2.98l-6.26,12.38l-44.44,16.97c-4.49,1.71-2.98,7.18,1.76,6.34l35.91-6.38
	c0.3,2.19,1.85,3.04,3.91,2.13l13.05,34.17c1.72,4.49,7.18,2.98,6.34-1.76l-8.31-46.8l7.12-11.05l5.66,14.82
	c1.02,2.68,4.28,1.78,3.78-1.05l-3.96-22.3l18-27.96c1.1,1.6,1.97,3.41,2.51,5.42l4.8,98.9l-23.54,29.41
	c-3.24,4.06,1.16,8.33,5.11,4.95l19.3-16.48l1.55,31.84l-15.42,19.26c-2.38,2.98,0.85,6.11,3.75,3.64l12.27-10.48l1.09,22.42
	c1.05,21.69,15.15,21.74,16.35,0.06l1.46-26.34L282.11,483c2.98,2.38,6.1-0.85,3.63-3.75l-19.84-23.23l1.66-29.88l22.89,18.32
	c4.06,3.25,8.32-1.16,4.95-5.11l-26.83-31.41l5.31-95.75c0.58-2.15,1.56-4.12,2.82-5.87l18.11,27.63l-3.49,23.03
	c-0.44,2.84,2.85,3.66,3.8,0.95l5.4-15.28l6.88,10.49l-0.02,0.01l-7.26,47.91c-0.73,4.75,4.78,6.13,6.38,1.59l12.26-34.73
	c2.15,1.05,3.78,0.25,4.11-1.95l35.72,5.42c4.76,0.72,6.13-4.78,1.6-6.38l-43.96-15.52l-6.57-12.73l16.55,2.51
	c2.84,0.43,3.66-2.85,0.95-3.81l-22.22-7.84l-14.85-28.78c2.17-0.14,4.43,0.1,6.69,0.84l87.1,44.67l13.66,34.89
	c1.91,4.83,7.8,3.15,6.85-1.96l-4.62-24.78l30.76,15.78L441,395.02c1.37,3.54,5.69,2.3,5-1.44l-3.57-19.19l16.99,8.72
	C478.74,393.01,485.82,380.82,467.63,368.96z"/>
</svg>
