<svg xmlns="http://www.w3.org/2000/svg" xml:space="preserve" viewBox="0 0 512 512">
  <path fill="#FFF" d="M512 256c0 141.312-114.688 256-256 256S0 397.312 0 256 114.688 0 256 0s256 114.688 256 256z"/>
  <path d="M134.144 481.28C170.496 500.992 211.968 512 256 512s85.76-11.264 121.856-30.72L256 299.52 134.144 481.28z"/>
  <path d="M99.584 255.744v-42.24h135.424V170.24H99.584v-41.984h313.088v41.984H277.248v43.264h135.424v41.984H277.248l135.936 202.497c60.16-46.849 99.072-120.064 99.072-202.24C512 114.688 397.312 0 256 0 114.688 0 0 114.688 0 256c0 82.176 38.656 155.392 99.072 202.24l135.936-202.496H99.584z"/>
</svg>
